<svg xmlns="http://www.w3.org/2000/svg" viewBox="0 0 130.49327087402344 35.25310516357422" overflow="hidden" preserveAspectRatio="xMidYMid meet" id="eaf-3c2c-0"><!-- Created with Expressive Animator v1.7.1 | https://expressive.app/expressive-animator/ --><defs><clipPath id="eaf-3c2c-1"><rect x="0" y="0" width="130.4933" height="35.2531"></rect></clipPath><linearGradient gradientUnits="userSpaceOnUse" gradientTransform="matrix(1 0 0 1.0288 0 -2.4366)" x1="65.2466" y1="17.3043" x2="65.2466" y2="152.0309" id="eaf-3c2c-2"><stop stop-color="#1da5e5" offset="0.1252"></stop><stop stop-color="#074461" offset="0.8664"></stop></linearGradient><linearGradient gradientUnits="userSpaceOnUse" gradientTransform="matrix(1 0 0 1.0288 0 -2.4366)" x1="65.2466" y1="17.3043" x2="65.2466" y2="152.0309" id="eaf-3c2c-3"><stop stop-color="#1da5e5" offset="0.1252"></stop><stop stop-color="#074461" offset="0.8664"></stop></linearGradient><linearGradient gradientUnits="userSpaceOnUse" gradientTransform="matrix(1 0 0 1.0288 0 -2.4366)" x1="65.2466" y1="17.3043" x2="65.2466" y2="152.0309" id="eaf-3c2c-4"><stop stop-color="#1da5e5" offset="0.1252"></stop><stop stop-color="#074461" offset="0.8664"></stop></linearGradient><linearGradient gradientUnits="userSpaceOnUse" gradientTransform="matrix(1 0 0 1.0288 0 -2.4366)" x1="65.2466" y1="17.3043" x2="65.2466" y2="152.0309" id="eaf-3c2c-5"><stop stop-color="#1da5e5" offset="0.1252"></stop><stop stop-color="#074461" offset="0.8664"></stop></linearGradient><linearGradient gradientUnits="userSpaceOnUse" gradientTransform="matrix(1 0 0 1.0288 0 -2.4366)" x1="65.2466" y1="17.3043" x2="65.2466" y2="152.0309" id="eaf-3c2c-6"><stop stop-color="#1da5e5" offset="0.1252"></stop><stop stop-color="#074461" offset="0.8664"></stop></linearGradient><linearGradient gradientUnits="userSpaceOnUse" gradientTransform="matrix(1 0 0 1.0288 0 -2.4366)" x1="65.2466" y1="17.3043" x2="65.2466" y2="152.0309" id="eaf-3c2c-7"><stop stop-color="#1da5e5" offset="0.1252"></stop><stop stop-color="#074461" offset="0.8664"></stop></linearGradient><linearGradient gradientUnits="userSpaceOnUse" gradientTransform="matrix(1 0 0 1.0288 0 -2.4366)" x1="65.2466" y1="17.3043" x2="65.2466" y2="152.0309" id="eaf-3c2c-8"><stop stop-color="#1da5e5" offset="0.1252"></stop><stop stop-color="#074461" offset="0.8664"></stop></linearGradient><linearGradient gradientUnits="userSpaceOnUse" gradientTransform="matrix(1 0 0 1.0288 0 -2.4366)" x1="65.2466" y1="17.3043" x2="65.2466" y2="152.0309" id="eaf-3c2c-9"><stop stop-color="#1da5e5" offset="0.1252"></stop><stop stop-color="#074461" offset="0.8664"></stop></linearGradient></defs><g clip-path="url('#eaf-3c2c-1')" style="isolation: isolate;"><g><g transform="translate(0 -66.6729)"><path fill="url('#eaf-3c2c-2')" paint-order="stroke" d="m31.5924 81.6643q-0.5622 0 -0.5622 0.5622q0 0.5622 0.5622 0.5622q0.5622 0 0.5622 -0.5622q0 -0.5622 -0.5622 -0.5622z" transform="translate(10.8064 0.0132)"><animateTransform attributeName="transform" type="translate" from="0 0" to="0 0" calcMode="discrete" dur="4000ms" repeatCount="indefinite"></animateTransform><animateMotion keyTimes="0;0.125;0.75;0.875;1" calcMode="spline" keySplines="0.75 0 0.75 0.9;0 0 1 1;0.75 0 0.255 1;0 0 1 1" dur="4000ms" repeatCount="indefinite" attributeName="transform" keyPoints="0.0442;0.523;0.523;1;1" path="m43.3987 82.2417l-1 -0.002q-4.2828 -0.0085 -10.8186 -0.0215l0 0l0 0l10.781 0" additive="sum"></animateMotion><animateTransform attributeName="transform" type="translate" from="-31.5924 -82.2265" to="-31.5924 -82.2265" calcMode="discrete" dur="4000ms" repeatCount="indefinite" additive="sum"></animateTransform><animate keyTimes="0;0.375;0.5;0.625;0.75;1" calcMode="linear" dur="4000ms" repeatCount="indefinite" attributeName="opacity" values="1;1;0;0;1;1"></animate></path><path fill="url('#eaf-3c2c-3')" paint-order="stroke" d="m38.6457 73.4188q-0.1236 -0.001 -0.1995 0.0966q-0.1547 0.1972 0.0429 0.3514l4.1331 3.2287q0.1972 0.1547 0.3514 -0.0429q0.1555 -0.1975 -0.0429 -0.3519l-4.1326 -3.2282q-0.067 -0.0529 -0.1524 -0.0537l0 0z" transform="matrix(0.788 -0.6157 0.6157 0.788 -38.5717 47.966)"><animateTransform attributeName="transform" type="translate" from="0 0" to="0 0" calcMode="discrete" dur="4000ms" repeatCount="indefinite"></animateTransform><animateMotion keyTimes="0;0.125;0.25;1" calcMode="linear" dur="4000ms" repeatCount="indefinite" attributeName="transform" keyPoints="0;0.0015;1;1" path="m39.8621 82.2325l-0.0099 -0.0035l0.8515 -6.936l0 0l0 0" additive="sum"></animateMotion><animateTransform keyTimes="0;0.125;0.25;1" calcMode="linear" dur="4000ms" repeatCount="indefinite" attributeName="transform" values="-38;-38;0;0" type="rotate" additive="sum"></animateTransform><animateTransform attributeName="transform" type="translate" from="-40.7101 -75.2911" to="-40.7101 -75.2911" calcMode="discrete" dur="4000ms" repeatCount="indefinite" additive="sum"></animateTransform><animate keyTimes="0;0.375;0.5;1" calcMode="linear" dur="4000ms" repeatCount="indefinite" attributeName="opacity" values="1;1;0;0"></animate></path><path fill="url('#eaf-3c2c-4')" paint-order="stroke" d="m36.0898 76.1897q-0.1667 -0.0071 -0.2372 0.1442q-0.105 0.2262 0.1209 0.3318l6.5939 3.0742q0.2266 0.1057 0.3323 -0.1209q0.1056 -0.2269 -0.1214 -0.3323l-6.5934 -3.0742q-0.0453 -0.0208 -0.0951 -0.0227z" transform="matrix(0.9063 -0.4226 0.4226 0.9063 -29.8111 28.203)"><animateTransform attributeName="transform" type="translate" from="0 0" to="0 0" calcMode="discrete" dur="4000ms" repeatCount="indefinite"></animateTransform><animateMotion keyTimes="0;0.125;0.25;1" calcMode="linear" dur="4000ms" repeatCount="indefinite" attributeName="transform" keyPoints="0;0.0026;1;1" path="m38.8323 82.237l0.0107 0.0034l0.544 -4.2627l0 0" additive="sum"></animateMotion><animateTransform keyTimes="0;0.125;0.25;1" calcMode="linear" dur="4000ms" repeatCount="indefinite" attributeName="transform" values="-25;-25;0;0" type="rotate" additive="sum"></animateTransform><animateTransform attributeName="transform" type="translate" from="-39.3763 -77.9814" to="-39.3763 -77.9814" calcMode="discrete" dur="4000ms" repeatCount="indefinite" additive="sum"></animateTransform><animate keyTimes="0;0.375;0.5;1" calcMode="linear" dur="4000ms" repeatCount="indefinite" attributeName="opacity" values="1;1;0;0"></animate></path><path fill="url('#eaf-3c2c-5')" paint-order="stroke" d="m33.2119 81.9764q-0.2502 -0.0001 -0.2501 0.2501q0.0004 0.2497 0.2501 0.2496l9.262 0q0.2492 -0.0004 0.2496 -0.2496q0.0001 -0.2497 -0.2496 -0.2501l-9.262 0z" transform="translate(0 0)"><animateTransform attributeName="transform" type="translate" from="0 0" to="0 0" calcMode="discrete" dur="4000ms" repeatCount="indefinite"></animateTransform><animateMotion keyTimes="0;0.25;1" calcMode="linear" dur="4000ms" repeatCount="indefinite" attributeName="transform" keyPoints="0;1;1" path="m37.8426 82.2262l-0.0016 0.0088l0 0l0 0" additive="sum"></animateMotion><animateTransform attributeName="transform" type="translate" from="-37.8426 -82.2262" to="-37.8426 -82.2262" calcMode="discrete" dur="4000ms" repeatCount="indefinite" additive="sum"></animateTransform><animate keyTimes="0;0.375;0.5;0.625;0.75;1" calcMode="linear" dur="4000ms" repeatCount="indefinite" attributeName="opacity" values="1;1;0;0;1;1"></animate></path><path fill="url('#eaf-3c2c-6')" paint-order="stroke" d="m42.662 84.6894q-0.0496 0.0022 -0.0946 0.0233l-6.5939 3.0742q-0.2259 0.1056 -0.1209 0.3318q0.1054 0.2271 0.3323 0.1214l6.5934 -3.0742q0.2271 -0.1053 0.1214 -0.3323q-0.0706 -0.1516 -0.2377 -0.1442z" transform="matrix(0.9063 0.4226 -0.4226 0.9063 39.7145 -12.7867)"><animateTransform attributeName="transform" type="translate" from="0 0" to="0 0" calcMode="discrete" dur="4000ms" repeatCount="indefinite"></animateTransform><animateMotion keyTimes="0;0.125;0.25;1" calcMode="spline" keySplines="0 0 1 1;0.75 0 0.75 0.9;0 0 1 1" dur="4000ms" repeatCount="indefinite" attributeName="transform" keyPoints="0;0.0079;1;1" path="m38.8529 82.2332l0.0201 -0.0273l0.5124 4.2388l0 0" additive="sum"></animateMotion><animateTransform keyTimes="0;0.125;0.25;1" calcMode="spline" keySplines="0 0 1 1;0.75 0 0.75 0.9;0 0 1 1" dur="4000ms" repeatCount="indefinite" attributeName="transform" values="25;25;0;0" type="rotate" additive="sum"></animateTransform><animateTransform keyTimes="0;0.25;1" calcMode="linear" dur="4000ms" repeatCount="indefinite" attributeName="transform" values="-39.3763 -86.4814;-39.3963 -86.4414;-39.3963 -86.4414" type="translate" additive="sum"></animateTransform><animate keyTimes="0;0.375;0.5;1" calcMode="linear" dur="4000ms" repeatCount="indefinite" attributeName="opacity" values="1;1;0;0"></animate></path><path fill="url('#eaf-3c2c-7')" paint-order="stroke" d="m78.9425 76.8594c-0.2139 0 -0.386 0.1727 -0.386 0.3865c0 0.2139 0.1721 0.386 0.386 0.386l1.0253 0c0.2139 0 0.386 -0.1721 0.386 -0.386c0 -0.2139 -0.1721 -0.3865 -0.386 -0.3865l-1.0253 0z"></path><path fill="url('#eaf-3c2c-8')" paint-order="stroke" d="m42.7747 87.3027q-0.0852 0.0004 -0.1524 0.0527l-4.1331 3.2303q-0.1945 0.1534 -0.0429 0.3493q0.1541 0.1987 0.3519 0.0434l4.1326 -3.2287q0.1945 -0.1534 0.0429 -0.3493q-0.0753 -0.098 -0.199 -0.0977z" transform="matrix(0.788 0.6157 -0.6157 0.788 62.681 -13.0992)"><animateTransform attributeName="transform" type="translate" from="0 0" to="0 0" calcMode="discrete" dur="4000ms" repeatCount="indefinite"></animateTransform><animateMotion keyTimes="0;0.125;0.25;1" calcMode="spline" keySplines="0 0 1 1;0.75 0 0.75 0.9;0 0 1 1" dur="4000ms" repeatCount="indefinite" attributeName="transform" keyPoints="0;0.0149;1;1" path="m39.8595 82.2349l-0.0632 0.0829l0.9213 6.8513l0 0" additive="sum"></animateMotion><animateTransform keyTimes="0;0.125;0.25;1" calcMode="spline" keySplines="0 0 1 1;0.75 0 0.75 0.9;0 0 1 1" dur="4000ms" repeatCount="indefinite" attributeName="transform" values="38;38;0;0" type="rotate" additive="sum"></animateTransform><animateTransform attributeName="transform" type="translate" from="-40.7099 -89.1746" to="-40.7099 -89.1746" calcMode="discrete" dur="4000ms" repeatCount="indefinite" additive="sum"></animateTransform><animate keyTimes="0;0.375;0.5;1" calcMode="linear" dur="4000ms" repeatCount="indefinite" attributeName="opacity" values="1;1;0;0"></animate></path><path fill="url('#eaf-3c2c-9')" paint-order="stroke" d="m81.7289 66.6729l-12.2571 0.0005c-0.802 0 -1.4475 0.6454 -1.4475 1.4475l0 28.2784c0 0.1214 0.015 0.2394 0.0429 0.3519q-1.4102 -0.0089 -2.8205 -0.0093q-6.0037 0.0062 -12.0024 0.1669q-0.4796 0.0065 -0.9591 0.0139l0 -0.0005q-21.8195 0.6067 -43.2769 3.2391q-3.8938 0.4778 -7.767 1.0216q-1.3245 0.2964 -1.2361 0.4971q0.1606 0.363 4.0881 0.2031q3.2332 -0.269 6.4735 -0.5095q27.2235 -2.0206 54.6799 -2.0206q27.4594 0.0001 54.6799 2.0206q3.2403 0.2405 6.4735 0.5095q3.9275 0.1599 4.0881 -0.2031q0.0885 -0.2007 -1.2361 -0.4971q-3.8731 -0.5438 -7.767 -1.0216q-19.0857 -2.3415 -38.4778 -3.081c0.108 -0.2029 0.1695 -0.4348 0.1695 -0.6816l0 -28.2784c0 -0.802 -0.646 -1.4475 -1.448 -1.4475zm-29.4437 30.2493q0.4795 -0.0072 0.9591 -0.0134q5.7571 -0.1543 11.5192 -0.1664l0 -0.4976c0 -0.5104 -0.411 -0.9214 -0.9214 -0.9214l-1.4661 0q-0.5897 0.0002 -0.6666 -0.5845l-0.2641 -2.0071l5.7588 0l0 -3.73l-20.7269 0c-0.2836 0 -0.5121 -0.2286 -0.5121 -0.5121l0 -14.7076c0 -0.2836 0.2286 -0.5116 0.5121 -0.5116l20.7269 0l0 -1.7715l-21.1362 0c-0.909 0 -1.6407 0.7318 -1.6407 1.6407l0 17.9514c0 0.909 0.7318 1.6407 1.6407 1.6407l9.5343 0l-0.2641 2.0071q-0.0769 0.5847 -0.6666 0.5845l-1.4661 0c-0.5104 0 -0.9214 0.411 -0.9214 0.9214l0 0.631c0 0.0155 0.0004 0.0312 0.001 0.0465l0 0zm18.5622 -27.4986l9.5064 0c0.5614 0 1.0134 0.452 1.0134 1.0134c0 0.5614 -0.452 1.0134 -1.0134 1.0134l-9.5064 0c-0.5614 0 -1.0134 -0.452 -1.0134 -1.0134c0 -0.5614 0.452 -1.0134 1.0134 -1.0134zm0 3.483l9.5064 0c0.5614 0 1.0134 0.452 1.0134 1.0134c0 0.5614 -0.452 1.0134 -1.0134 1.0134l-9.5064 0c-0.5614 0 -1.0134 -0.452 -1.0134 -1.0134c0 -0.5614 0.452 -1.0134 1.0134 -1.0134zm0 3.4825l9.5064 0c0.5614 0 1.0134 0.452 1.0134 1.0134c0 0.5614 -0.452 1.0134 -1.0134 1.0134l-9.5064 0c-0.5614 0 -1.0134 -0.452 -1.0134 -1.0134c0 -0.5614 0.452 -1.0134 1.0134 -1.0134zm4.7532 11.4686q1.8098 -0.0001 1.8097 1.8097q0.0001 1.8098 -1.8097 1.8097q-1.8098 0.0001 -1.8097 -1.8097q-0.0001 -1.8098 1.8097 -1.8097zm-17.0765 2.0149q0.8018 0.0002 0.802 0.802q0.0003 0.8023 -0.802 0.8025q-0.8028 0.0003 -0.8025 -0.8025q0.0002 -0.8023 0.8025 -0.802zm12.3233 4.1538l9.5064 0c0.5614 0 1.0134 0.2585 1.0134 0.5793c0 0.3208 -0.452 0.5793 -1.0134 0.5793l-9.5064 0c-0.5614 0 -1.0134 -0.2585 -1.0134 -0.5793c0 -0.3208 0.452 -0.5793 1.0134 -0.5793z" transform="translate(0 0)"><animateTransform attributeName="transform" type="translate" from="0 0" to="0 0" calcMode="discrete" dur="4000ms" repeatCount="indefinite"></animateTransform><animateMotion keyTimes="0;0.3918;1" calcMode="linear" dur="4000ms" repeatCount="indefinite" attributeName="transform" keyPoints="0;1;1" path="m65.2467 84.3025l0 -0.0701" additive="sum"></animateMotion><animateTransform attributeName="transform" type="translate" from="-65.2467 -84.3025" to="-65.2467 -84.3025" calcMode="discrete" dur="4000ms" repeatCount="indefinite" additive="sum"></animateTransform></path><animateTransform attributeName="transform" type="translate" from="0 0" to="0 0" calcMode="discrete" dur="4000ms" repeatCount="indefinite"></animateTransform><animateMotion keyTimes="0;0.375;1" calcMode="linear" dur="4000ms" repeatCount="indefinite" attributeName="transform" keyPoints="0;1;1" path="m65.2466 17.6296l0 0.0753" additive="sum"></animateMotion><animateTransform attributeName="transform" type="translate" from="-65.2467 -84.3025" to="-65.2467 -84.3025" calcMode="discrete" dur="4000ms" repeatCount="indefinite" additive="sum"></animateTransform></g></g></g></svg>