<?xml version="1.0" encoding="UTF-8" standalone="no"?>
<!-- Created with Inkscape (http://www.inkscape.org/) -->

<svg
   width="130.49324mm"
   height="135.57483mm"
   viewBox="0 0 130.49325 135.57483"
   version="1.1"
   id="svg1"
   xml:space="preserve"
   inkscape:version="1.4.2 (f4327f4, 2025-05-13)"
   sodipodi:docname="logo.svg"
   inkscape:export-filename="logo.webp"
   inkscape:export-xdpi="300"
   inkscape:export-ydpi="300"
   xmlns:inkscape="http://www.inkscape.org/namespaces/inkscape"
   xmlns:sodipodi="http://sodipodi.sourceforge.net/DTD/sodipodi-0.dtd"
   xmlns:xlink="http://www.w3.org/1999/xlink"
   xmlns="http://www.w3.org/2000/svg"
   xmlns:svg="http://www.w3.org/2000/svg"><sodipodi:namedview
     id="namedview1"
     pagecolor="#ffffff"
     bordercolor="#000000"
     borderopacity="0.25"
     inkscape:showpageshadow="2"
     inkscape:pageopacity="0.0"
     inkscape:pagecheckerboard="0"
     inkscape:deskcolor="#d1d1d1"
     inkscape:document-units="mm"
     inkscape:zoom="1"
     inkscape:cx="270.5"
     inkscape:cy="294"
     inkscape:window-width="3440"
     inkscape:window-height="1417"
     inkscape:window-x="1912"
     inkscape:window-y="-8"
     inkscape:window-maximized="1"
     showguides="false"
     inkscape:current-layer="svg1" /><defs
     id="defs1"><linearGradient
       id="linearGradient513839"
       inkscape:collect="always"><stop
         style="stop-color:#56c4df;stop-opacity:1;"
         offset="0"
         id="stop513839" /><stop
         style="stop-color:#53c1dc;stop-opacity:1;"
         offset="0.08321965"
         id="stop513841" /><stop
         style="stop-color:#3db1ce;stop-opacity:1;"
         offset="0.21555252"
         id="stop513842" /><stop
         style="stop-color:#279cba;stop-opacity:1;"
         offset="0.41609824"
         id="stop513845" /><stop
         style="stop-color:#2498b6;stop-opacity:1;"
         offset="0.61527967"
         id="stop513844" /><stop
         style="stop-color:#2d9cbd;stop-opacity:1;"
         offset="0.86903137"
         id="stop513843" /><stop
         style="stop-color:#2a98b6;stop-opacity:1;"
         offset="1"
         id="stop513840" /></linearGradient><linearGradient
       id="linearGradient513832"
       inkscape:collect="always"><stop
         style="stop-color:#3fb9db;stop-opacity:1;"
         offset="0"
         id="stop513832" /><stop
         style="stop-color:#1da6d1;stop-opacity:1;"
         offset="0.22237381"
         id="stop513838" /><stop
         style="stop-color:#1895c1;stop-opacity:1;"
         offset="0.3915416"
         id="stop513837" /><stop
         style="stop-color:#127da7;stop-opacity:1;"
         offset="0.55252385"
         id="stop513836" /><stop
         style="stop-color:#0f6e95;stop-opacity:1;"
         offset="0.69031376"
         id="stop513835" /><stop
         style="stop-color:#0b5b7f;stop-opacity:1;"
         offset="0.84904069"
         id="stop513834" /><stop
         style="stop-color:#074e6f;stop-opacity:1;"
         offset="1"
         id="stop513833" /></linearGradient><linearGradient
       inkscape:collect="always"
       id="linearGradient2318"><stop
         style="stop-color:#0a4c6d;stop-opacity:1;"
         offset="0"
         id="stop2318" /><stop
         style="stop-color:#1eabd6;stop-opacity:1;"
         offset="1"
         id="stop2319" /></linearGradient><inkscape:path-effect
       effect="fillet_chamfer"
       id="path-effect2305"
       is_visible="true"
       lpeversion="1"
       nodesatellites_param="F,0,0,1,0,0,0,1 @ F,0,0,1,0,1.5282053,0,1 @ F,0,0,1,0,0,0,1 @ F,0,0,1,0,0,0,1 @ F,0,0,1,0,0,0,1"
       radius="0"
       unit="px"
       method="auto"
       mode="F"
       chamfer_steps="1"
       flexible="false"
       use_knot_distance="true"
       apply_no_radius="true"
       apply_with_radius="true"
       only_selected="false"
       hide_knots="false" /><inkscape:path-effect
       effect="fillet_chamfer"
       id="path-effect2304"
       is_visible="true"
       lpeversion="1"
       nodesatellites_param="F,0,0,1,0,0,0,1 @ F,0,0,1,0,0.38811256,0,1 @ F,0,0,1,0,0.66940559,0,1 @ F,0,0,1,0,0,0,1"
       radius="0"
       unit="px"
       method="auto"
       mode="F"
       chamfer_steps="1"
       flexible="false"
       use_knot_distance="true"
       apply_no_radius="true"
       apply_with_radius="true"
       only_selected="false"
       hide_knots="false" /><inkscape:path-effect
       effect="fillet_chamfer"
       id="path-effect2272"
       is_visible="true"
       lpeversion="1"
       nodesatellites_param="F,0,0,1,0,0,0,1 @ F,0,0,1,0,0,0,1 @ F,0,1,1,0,0.78880588,0,1 @ F,0,0,1,0,0,0,1 @ F,0,0,1,0,0,0,1 @ F,0,0,1,0,0,0,1 @ F,0,0,1,0,0,0,1 @ F,0,0,1,0,0.78880588,0,1 @ F,0,0,1,0,0,0,1 @ F,0,0,1,0,0,0,1"
       radius="0"
       unit="px"
       method="auto"
       mode="F"
       chamfer_steps="1"
       flexible="false"
       use_knot_distance="true"
       apply_no_radius="true"
       apply_with_radius="true"
       only_selected="false"
       hide_knots="false" /><inkscape:path-effect
       effect="fillet_chamfer"
       id="path-effect2270"
       is_visible="true"
       lpeversion="1"
       nodesatellites_param="F,0,0,1,0,0,0,1 @ F,0,0,1,0,0,0,1 @ F,0,1,1,0,0.78880588,0,1 @ F,0,0,1,0,0,0,1 @ F,0,0,1,0,0,0,1 @ F,0,0,1,0,0,0,1 @ F,0,0,1,0,0,0,1 @ F,0,0,1,0,0.78880588,0,1 @ F,0,0,1,0,0,0,1 @ F,0,0,1,0,0,0,1"
       radius="0"
       unit="px"
       method="auto"
       mode="F"
       chamfer_steps="1"
       flexible="false"
       use_knot_distance="true"
       apply_no_radius="true"
       apply_with_radius="true"
       only_selected="false"
       hide_knots="false" /><linearGradient
       id="linearGradient79"
       inkscape:collect="always"><stop
         style="stop-color:#1da5e5;stop-opacity:1;"
         offset="0.1251758"
         id="stop79" /><stop
         style="stop-color:#074461;stop-opacity:1;"
         offset="0.8663854"
         id="stop80" /></linearGradient><linearGradient
       id="linearGradient72"
       inkscape:collect="always"><stop
         style="stop-color:#36a9cb;stop-opacity:1;"
         offset="0"
         id="stop72" /><stop
         style="stop-color:#1e87a7;stop-opacity:1;"
         offset="1"
         id="stop73" /></linearGradient><linearGradient
       id="linearGradient32"
       inkscape:collect="always"><stop
         style="stop-color:#0d77a6;stop-opacity:1;"
         offset="0"
         id="stop32" /><stop
         style="stop-color:#031d2e;stop-opacity:1;"
         offset="1"
         id="stop33" /></linearGradient><inkscape:path-effect
       effect="fillet_chamfer"
       id="path-effect29"
       is_visible="true"
       lpeversion="1"
       nodesatellites_param="F,0,1,1,0,0.35641157,0,1 @ F,0,0,1,0,0,0,1 @ F,0,0,1,0,0,0,1 @ F,0,0,1,0,0,0,1 @ F,0,0,1,0,0,0,1 @ F,0,0,1,0,0,0,1 @ F,0,0,1,0,0,0,1 @ F,0,0,1,0,0,0,1 @ F,0,0,1,0,0,0,1 @ F,0,0,1,0,0,0,1 @ F,0,0,1,0,0,0,1 @ F,0,0,1,0,0,0,1 @ F,0,0,1,0,0.35641157,0,1 @ F,0,0,1,0,0,0,1 @ F,0,0,1,0,0,0,1 @ F,0,0,1,0,0,0,1 @ F,0,0,1,0,0,0,1 @ F,0,0,1,0,0,0,1 @ F,0,0,1,0,0,0,1 @ F,0,0,1,0,0,0,1 @ F,0,0,1,0,0,0,1 @ F,0,0,1,0,0,0,1 @ F,0,0,1,0,0,0,1 @ F,0,0,1,0,0,0,1"
       radius="0"
       unit="px"
       method="auto"
       mode="F"
       chamfer_steps="1"
       flexible="false"
       use_knot_distance="true"
       apply_no_radius="true"
       apply_with_radius="true"
       only_selected="false"
       hide_knots="false" /><inkscape:path-effect
       effect="fillet_chamfer"
       id="path-effect19"
       is_visible="true"
       lpeversion="1"
       nodesatellites_param="F,0,0,1,0,0,0,1 @ F,0,0,1,0,0.58944423,0,1 @ F,0,0,1,0,0,0,1 @ F,0,0,1,0,0,0,1 @ F,0,0,1,0,0,0,1 @ F,0,0,1,0,0,0,1 @ F,0,0,1,0,0,0,1 @ F,0,0,1,0,0,0,1 @ F,0,0,1,0,0,0,1 @ F,0,0,1,0,0,0,1"
       radius="0"
       unit="px"
       method="auto"
       mode="F"
       chamfer_steps="1"
       flexible="false"
       use_knot_distance="true"
       apply_no_radius="true"
       apply_with_radius="true"
       only_selected="false"
       hide_knots="false" /><inkscape:path-effect
       effect="fillet_chamfer"
       id="path-effect17"
       is_visible="true"
       lpeversion="1"
       nodesatellites_param="F,0,0,1,0,0,0,1 @ F,0,0,1,0,0.58944423,0,1 @ F,0,0,1,0,0,0,1 @ F,0,0,1,0,0,0,1 @ F,0,0,1,0,0,0,1 @ F,0,0,1,0,0,0,1 @ F,0,0,1,0,0,0,1 @ F,0,0,1,0,0,0,1 @ F,0,0,1,0,0,0,1 @ F,0,0,1,0,0,0,1"
       radius="0"
       unit="px"
       method="auto"
       mode="F"
       chamfer_steps="1"
       flexible="false"
       use_knot_distance="true"
       apply_no_radius="true"
       apply_with_radius="true"
       only_selected="false"
       hide_knots="false" /><linearGradient
       inkscape:collect="always"
       xlink:href="#linearGradient32"
       id="linearGradient33"
       x1="112.62861"
       y1="113.30956"
       x2="112.62861"
       y2="240.39381"
       gradientUnits="userSpaceOnUse" /><linearGradient
       inkscape:collect="always"
       xlink:href="#linearGradient72"
       id="linearGradient73"
       x1="81.315163"
       y1="167.31235"
       x2="81.315163"
       y2="185.44919"
       gradientUnits="userSpaceOnUse"
       gradientTransform="translate(-48.68697,-56.283618)" /><linearGradient
       inkscape:collect="always"
       xlink:href="#linearGradient79"
       id="linearGradient80"
       x1="113.90571"
       y1="75.336769"
       x2="113.90571"
       y2="205.83002"
       gradientUnits="userSpaceOnUse"
       gradientTransform="matrix(1.032441,0,0,1.0621533,-52.354295,-64.653511)" /><linearGradient
       inkscape:collect="always"
       id="linearGradient2319"
       x1="91.258224"
       y1="134.43289"
       x2="125.14122"
       y2="54.609558"
       gradientUnits="userSpaceOnUse"
       xlink:href="#linearGradient2318" /><clipPath
       clipPathUnits="userSpaceOnUse"
       id="clipPath2319"><path
         id="path2319"
         style="opacity:0.5;fill:#ff0000;stroke-width:0.499996;stroke-linecap:round;stroke-linejoin:round;paint-order:markers stroke fill"
         d="m 117.606,56.284455 c -0.44471,0.02633 -0.61422,0.585616 -0.20258,2.483051 0.53422,2.462411 0.99139,3.742783 1.55288,5.054473 0.48781,1.139569 0.87075,2.511764 1.96371,4.25917 l 2.35127,1.706875 -1.35444,-4.681887 -1.35909,-1.375108 c -0.006,-0.0057 -0.0109,-0.01154 -0.016,-0.01757 -0.4363,-0.159467 -0.7268,-0.57417 -0.7276,-1.038696 0,-0.6119 0.49604,-1.10794 1.10794,-1.107943 0.6119,-5e-6 1.10795,0.496041 1.10795,1.107943 7e-5,0.403754 -0.21951,0.775575 -0.5731,0.970483 l 1.02061,1.033529 c 0.0412,0.04134 0.0712,0.09232 0.0879,0.148309 l 1.63039,5.637382 v 5.29e-4 l 0.0124,0.04341 0.0563,0.05478 5.3e-4,5.29e-4 1.41542,1.368909 c 0.13837,0.134287 0.14287,0.355188 0.008,0.494028 -0.13465,0.139597 -0.35715,0.14293 -0.4961,0.0078 l -1.53737,-1.488281 c -0.0133,-0.01278 -0.0256,-0.02662 -0.0367,-0.04134 l -5.3e-4,-5.3e-4 -3.7946,-2.752801 c -0.0299,-0.02156 -0.0563,-0.04775 -0.078,-0.07752 -1.339,-0.770604 -2.75257,-1.636545 -4.10466,-2.238623 -3.22953,-1.43808 -6.17834,-2.055384 -7.53029,-2.222604 -1.41643,-0.175191 -1.11591,0.200766 0.69402,3.843177 2.87928,5.79447 8.77879,11.211602 18.14256,12.856061 -2.35491,3.648972 -1.14943,4.919912 -1.80609,6.13141 -0.30693,0.566261 -1.73498,1.655683 -2.41743,2.026234 -2.78641,1.51297 -8.25519,1.225683 -13.74024,1.152382 -4.98041,-0.06658 -10.213594,1.492666 -13.438974,2.864427 -1.065469,0.453139 -2.577279,1.002438 -4.800221,3.362069 -0.12105,-0.11838 -0.143658,-0.147278 -0.143658,-0.147278 l -3.001881,0.01551 c -0.1906,0.447108 -0.629661,0.737301 -1.1157,0.737422 -0.670161,9.8e-5 -1.213459,-0.5432 -1.213361,-1.213363 1.8e-4,-0.669959 0.543401,-1.212945 1.213361,-1.212845 0.58271,1.22e-4 1.083029,0.41452 1.191659,0.987021 l 2.27325,-0.01035 c -0.454459,-0.471125 -1.009899,-0.942435 -1.93425,-1.217496 -2.225098,-0.66212 -2.702978,-1.401072 -3.127978,-2.15284 -0.506971,0.585118 -0.764151,0.629692 -1.475361,1.994193 -0.21657,0.415502 -0.603769,0.807961 -0.846461,1.240751 0.177692,-0.09637 0.37664,-0.146823 0.578782,-0.146762 0.669758,1.88e-4 1.212659,0.543089 1.212839,1.212847 -6.1e-5,0.321271 -0.12755,0.629402 -0.354499,0.856795 l 1.91616,2.075842 7.529258,-0.111104 2.910422,-2.734718 c 0.065,-0.06137 0.150929,-0.09557 0.24029,-0.0956 l 10.541983,0.01601 c 0.14792,-0.457187 0.57368,-0.766906 1.0542,-0.766879 0.6119,-6e-6 1.10795,0.496038 1.10795,1.107942 0,0.611902 -0.49605,1.107946 -1.10795,1.107943 -0.4739,1.6e-5 -0.89533,-0.301368 -1.04851,-0.749827 l -10.409175,-0.01394 -2.90835,2.732648 c -0.0637,0.05917 -0.147159,0.09251 -0.234098,0.09353 l -7.822261,0.117308 c -0.0994,0.0013 -0.194709,-0.03994 -0.262001,-0.113173 l -2.14871,-2.329056 -0.232019,-0.251147 0.231511,0.251147 c -0.0716,0.01304 -0.144251,0.01963 -0.21704,0.01963 -0.418902,-5.29e-4 -0.807861,-0.217241 -1.02888,-0.573092 -0.320662,2.232408 0.27078,5.060489 4.774898,6.023929 -2.683378,6.04301 -2.164599,6.44806 -3.162599,9.90844 -1.025739,3.55654 -5.3209,1.65103 -6.528279,3.22977 -1.346732,1.76096 -3.137702,5.9843 -6.077151,9.02168 -3.956971,4.08874 -7.277679,6.29146 -6.0017,7.67602 0.31696,0.34392 2.370619,0.32149 2.946591,0.32349 2.20219,0.008 4.410329,-1.01997 7.500318,-4.35322 1.892782,-2.04179 3.140461,-3.93614 5.199682,-5.64256 1.02022,-0.84541 4.350488,-0.48879 6.964428,-0.48679 7.355412,0.005 10.969451,-0.9781 17.515725,-7.28172 0.52382,-0.5047 3.21647,-0.5176 6.61768,-0.5116 3.30608,0.006 4.6905,-0.50985 10.2769,-2.40141 2.51522,-0.85165 2.45481,0.70458 8.30698,1.15497 2.18891,0.16847 3.88502,0.76394 5.44515,2.11822 1.29113,1.12077 2.49987,2.95414 3.72535,3.77031 2.50606,1.66904 5.84167,1.65346 6.95358,0.46044 0.77614,-0.83275 -1.4926,-2.6668 -3.47834,-4.14238 -1.70627,-1.26792 -3.65606,-2.70662 -5.17488,-3.98012 -1.96098,-1.64425 -4.09883,-2.08825 -3.75687,-2.61793 0.18463,-0.28598 1.19346,0.0494 2.66082,0.16485 0.92058,0.0724 2.02262,0.0773 2.92798,0.52761 1.70919,0.85016 2.7459,2.78293 4.48138,3.82768 2.98194,1.79511 4.92322,1.60927 6.80217,1.29811 1.49259,-0.24717 -0.53135,-2.46166 -1.92184,-4.0535 -1.41712,-1.62232 -5.14956,-4.74901 -7.44761,-5.68854 -2.45201,-1.00249 -3.04314,-0.73333 -4.25866,-0.98082 2.2815,-2.75688 2.21043,-4.643065 2.63447,-9.242333 0.0103,-0.11217 1.82806,-0.506717 3.29851,-1.182357 2.5706,-1.181142 5.86065,-3.088778 5.54023,-8.249626 -0.0789,-1.27026 -0.44352,-0.400929 -3.92896,-3.743958 -3.48545,-3.343021 -4.94039,-6.095378 -11.65149,-6.053378 -2.38529,-10.59869 -10.03349,-16.695862 -14.29835,-18.656742 -0.53527,-0.246102 -1.04783,-0.548097 -1.39371,-0.527616 z m 7.74784,9.08575 h 5.3e-4 c 0.6119,2e-6 1.10794,0.496043 1.10794,1.107942 5e-5,0.322615 -0.14052,0.62923 -0.38499,0.839743 l 4.26641,4.678783 c 0.0578,0.06446 0.0896,0.148042 0.0894,0.234611 l 0.0155,3.960998 3.27577,3.413747 3.90416,0.04909 c 0.0879,0.0011 0.17224,0.0352 0.23616,0.0956 l 2.24792,2.117698 c 0.23031,-0.259709 0.56084,-0.408323 0.90796,-0.408244 0.66976,1.88e-4 1.21266,0.543089 1.21284,1.212848 1e-4,0.669959 -0.54288,1.213175 -1.21284,1.213363 -0.67016,9.8e-5 -1.21346,-0.5432 -1.21336,-1.213363 -2.2e-4,-0.04141 0.002,-0.08281 0.006,-0.124024 l -2.32958,-2.196764 -3.91604,-0.04651 c -0.0937,-0.0013 -0.18309,-0.03989 -0.24804,-0.107487 l -3.47266,-3.621484 c -0.0625,-0.06502 -0.0975,-0.151657 -0.0977,-0.241845 l -0.0155,-3.965133 -4.35891,-4.783688 c -0.007,6.3e-5 -0.0143,6.3e-5 -0.0212,0 -0.6119,-3e-6 -1.10742,-0.496044 -1.10742,-1.107943 0,-0.611899 0.49552,-1.10794 1.10742,-1.107943 z m -10.08827,2.445329 c 0.0925,-2.01e-4 0.18129,0.03621 0.24701,0.101285 l 6.5257,6.492111 3.90054,-0.125574 c 0.14985,-0.454007 0.57403,-0.760685 1.05213,-0.760677 0.6119,-6e-6 1.10795,0.496038 1.10795,1.107942 0,0.611902 -0.49605,1.107948 -1.10795,1.107943 -0.47616,7.9e-5 -0.89912,-0.304086 -1.05058,-0.75551 l -4.03076,0.129191 c -0.0963,0.003 -0.18959,-0.03382 -0.25787,-0.101801 l -6.63112,-6.597531 c -0.13662,-0.136006 -0.13773,-0.356886 -0.002,-0.494027 0.0654,-0.06583 0.15423,-0.103005 0.24701,-0.103352 z m -1.86138,0.514697 c 0.66976,1.88e-4 1.21265,0.543089 1.21284,1.212844 -6e-5,0.25146 -0.0783,0.496687 -0.22376,0.701768 l 6.01566,6.21874 4.28552,0.01551 c 0.19298,0.0016 0.34833,0.15893 0.34727,0.351917 -2.6e-4,0.193585 -0.15781,0.350104 -0.3514,0.349332 l -4.43177,-0.01757 c -0.094,-2.09e-4 -0.18393,-0.0382 -0.2496,-0.10542 l -6.17068,-6.381523 -0.17932,-0.185002 0.1788,0.185002 c -0.13838,0.05313 -0.28533,0.08046 -0.43356,0.08061 -0.67017,1.06e-4 -1.21347,-0.543197 -1.21337,-1.213363 1.9e-4,-0.669965 0.54341,-1.212951 1.21337,-1.212845 z m 0,0.60358 c -0.33662,-1.05e-4 -0.60961,0.272648 -0.60979,0.609264 -10e-5,0.33682 0.27297,0.609889 0.60979,0.609783 0.061,-5.29e-4 0.12165,-0.01 0.17983,-0.02842 0.12595,-0.03908 0.23584,-0.117962 0.31316,-0.224793 0.0753,-0.103685 0.11595,-0.228446 0.11627,-0.356568 -1.8e-4,-0.33641 -0.27285,-0.609079 -0.60926,-0.609264 z m 13.32838,7.56543 c 0.66976,1.83e-4 1.21267,0.543084 1.21285,1.212845 7e-5,0.02482 -7.9e-4,0.04964 -0.002,0.07441 l 0.74724,0.137975 c 0.0713,0.01302 0.1369,0.04786 0.18759,0.09974 l 3.44113,3.537252 4.16047,0.160197 c 0.0984,0.0041 0.19051,0.04953 0.25373,0.125058 l 2.49236,2.935221 7.75766,0.0155 c 0.19399,7.9e-5 0.35091,0.157927 0.34985,0.351917 -0.001,0.192373 -0.15747,0.347702 -0.34985,0.347781 l -7.922,-0.01601 c -0.10225,-2.35e-4 -0.19929,-0.04517 -0.26561,-0.122991 l -2.49597,-2.941424 -4.14652,-0.160197 c -0.09,-0.0032 -0.17534,-0.04094 -0.23823,-0.10542 l -3.46077,-3.558437 -0.76119,-0.140044 c -0.22959,0.298042 -0.58445,0.472707 -0.96067,0.472839 -0.67016,9.8e-5 -1.21346,-0.5432 -1.21336,-1.213363 1.8e-4,-0.669959 0.5434,-1.212945 1.21336,-1.212845 z m 0,0.603581 c -0.33641,1.88e-4 -0.60908,0.272857 -0.60926,0.609264 -1e-4,0.336814 0.27297,0.609883 0.60978,0.609782 0.12085,-5.29e-4 0.23885,-0.03676 0.339,-0.104386 0.1686,-0.112974 0.26992,-0.302445 0.27026,-0.505396 -5.3e-4,-0.0081 -10e-4,-0.01622 -0.002,-0.02429 -0.0132,-0.326091 -0.28084,-0.583959 -0.6072,-0.584978 z m 1.08056,4.22248 h 5.3e-4 c 0.0927,-0.0013 0.18213,0.03452 0.24857,0.09922 l 2.24792,2.183845 3.11609,0.02273 c 0.17184,-0.413358 0.57554,-0.682696 1.02319,-0.682643 0.6119,-5e-6 1.10795,0.496038 1.10795,1.10794 0,0.611904 -0.49605,1.107948 -1.10795,1.107943 -0.50588,7.4e-5 -0.94756,-0.342511 -1.07332,-0.832506 l -3.2122,-0.02429 c -0.0899,-0.0011 -0.17599,-0.03685 -0.2403,-0.09974 l -2.34973,-2.280997 c -0.13916,-0.135088 -0.14254,-0.357574 -0.006,-0.496096 0.0647,-0.06612 0.15306,-0.104013 0.24547,-0.105418 z m 13.20694,0.738457 c -0.19782,2.65e-4 -0.38316,0.0967 -0.49713,0.258382 -0.0729,0.102539 -0.1122,0.225102 -0.11265,0.350882 2.6e-4,0.005 7.9e-4,0.01 0.001,0.015 0.008,0.330547 0.27811,0.594432 0.60875,0.594794 0.33662,-1.82e-4 0.60937,-0.273166 0.60927,-0.609782 -1.8e-4,-0.336413 -0.27286,-0.609082 -0.60927,-0.609264 z m -11.96206,3.728972 c 0.49631,-5.1e-5 0.93211,0.329962 1.0666,0.807701 h 15.99954 c 0.19298,8.2e-5 0.34948,0.156353 0.34985,0.349335 -8e-5,0.19318 -0.15667,0.349766 -0.34985,0.349848 h -16.03261 c -0.16489,0.427209 -0.5756,0.708961 -1.03353,0.709001 -0.6119,-3e-6 -1.10794,-0.496043 -1.10794,-1.107943 0,-0.611899 0.49604,-1.10794 1.10794,-1.107942 z m 15.59388,2.33164 c 0.6119,3e-6 1.10794,0.496044 1.10794,1.107943 0,0.611899 -0.49604,1.10794 -1.10794,1.107943 -0.52439,1.56e-4 -0.97707,-0.367337 -1.08469,-0.880568 l -7.34942,-0.04082 -2.46083,2.568321 -0.0145,2.416905 c 0.0314,0.0089 0.0624,0.01908 0.093,0.03049 l -0.0651,0.07596 0.0656,-0.07596 2.46394,-2.867525 c 0.0694,-0.08029 0.17145,-0.124764 0.2775,-0.120925 l 2.38383,0.08475 c 0.15001,-0.519205 0.62538,-0.876573 1.16582,-0.876432 0.66976,1.82e-4 1.21267,0.543083 1.21285,1.212844 1e-4,0.669965 -0.54289,1.213181 -1.21285,1.213364 -0.53,6.3e-5 -0.9987,-0.343927 -1.15755,-0.849561 l -2.24792,-0.0801 -2.32751,2.707327 c 0.15072,0.207243 0.23194,0.456885 0.23203,0.713137 1e-4,0.669962 -0.54289,1.213178 -1.21285,1.213361 -0.67016,1e-4 -1.21346,-0.5432 -1.21336,-1.213361 7e-5,-0.526486 0.3397,-0.992838 0.84077,-1.154454 h 5.3e-4 l 0.0165,-2.574517 c 2e-5,-0.08937 0.0342,-0.17534 0.0956,-0.240297 l 2.66392,-2.777091 c 0.0664,-0.06914 0.15835,-0.107998 0.25425,-0.107487 l 7.57783,0.04237 c 0.18291,-0.388117 0.57346,-0.635735 1.00252,-0.635619 z m -14.38672,1.107943 c 0.30572,-6.6e-5 0.58037,0.186862 0.69247,0.471289 l 2.3952,-0.02687 c 0.19379,-0.0031 0.35318,0.151916 0.35553,0.345718 0.002,0.193786 -0.15399,0.352245 -0.34778,0.353465 l -2.48615,0.02791 c -0.13932,0.198588 -0.36669,0.316804 -0.60927,0.316775 -0.41098,0 -0.74414,-0.333164 -0.74414,-0.744141 0,-0.410975 0.33316,-0.744141 0.74414,-0.744141 z m -5.37693,0.995804 h 5.3e-4 c 1.05705,-0.006 2.11363,0.290738 3.04787,0.869199 0.37014,0.229177 0.32233,0.609243 -0.0713,0.795816 l -3.29231,1.560111 c -0.39202,0.185761 -0.68625,0.491193 -0.86351,0.85163 -0.25087,0.510794 -0.26659,1.132422 0.005,1.683618 l 0.62322,1.261419 c 0.38237,0.774089 1.22936,1.194724 2.03088,1.039731 h 5.3e-4 c 0.17177,-0.03327 0.34125,-0.09304 0.50384,-0.181385 l 3.28714,-1.785419 c 0.3828,-0.207955 0.72446,-0.02291 0.70175,0.411861 -0.12039,2.310296 -1.52872,4.327191 -3.64937,5.117001 -0.70411,0.26225 -1.45567,0.37603 -2.21177,0.33486 -1.22902,-0.067 -2.38687,-0.53573 -3.33105,-1.29914 l -14.59137,8.06669 c 0.23149,2.59386 -1.19004,5.08346 -3.63492,5.99395 -1.62223,0.60418 -3.43077,0.3991 -4.92578,-0.52659 -0.370131,-0.22917 -0.322331,-0.60924 0.07131,-0.79581 l 3.2923,-1.56011 c 0.3179,-0.15064 0.57131,-0.37974 0.75035,-0.6532 0.35462,-0.54164 0.41711,-1.25732 0.10851,-1.88205 l -0.62321,-1.26142 c -0.33446,-0.67708 -1.02407,-1.08367 -1.72806,-1.07125 h -5.3e-4 c -0.27336,0.005 -0.549019,0.0729 -0.80667,0.2129 l -3.287128,1.78542 c -0.382802,0.20796 -0.724472,0.0234 -0.70177,-0.41134 0.120409,-2.3103 1.528728,-4.32771 3.64939,-5.11752 0.528079,-0.19669 1.083058,-0.31 1.646408,-0.33693 0.18779,-0.009 0.37632,-0.008 0.56534,0.002 1.27206,0.0693 2.46766,0.56946 3.42925,1.38079 l 14.50609,-8.019667 c -0.29096,-2.639777 1.13676,-5.197102 3.622,-6.122623 0.60818,-0.22651 1.24271,-0.338857 1.87689,-0.342614 z m -11.62255,0.955498 c 0.6119,-5e-6 1.10795,0.496041 1.10795,1.107943 0,0.611902 -0.49605,1.107945 -1.10795,1.107943 -0.47703,-6.9e-5 -0.90047,-0.305467 -1.0511,-0.758095 h -5.62187 l -0.87747,1.15807 4.1646,0.06046 c 0.0976,0.0011 0.19033,0.04284 0.2558,0.11524 l 2.28152,2.519743 c 0.0895,-0.02275 0.18152,-0.0342 0.27388,-0.03411 0.6119,0 1.10794,0.496044 1.10794,1.107943 0,0.611899 -0.49604,1.10794 -1.10794,1.107942 -0.6119,-2e-6 -1.10794,-0.496043 -1.10794,-1.107942 -3e-5,-0.249682 0.0843,-0.492051 0.23926,-0.687814 L 109.71811,94.55757 96.211954,94.362233 c -0.1938,-0.0024 -0.34879,-0.161745 -0.34571,-0.355534 0.0021,-0.193799 0.161739,-0.348792 0.355531,-0.345715 l 8.623245,0.125574 1.29656,-1.705838 c 0.0659,-0.08686 0.16848,-0.138062 0.2775,-0.138493 h 5.795 c 0.15051,-0.453009 0.57425,-0.75869 1.05161,-0.758611 z m 26.86141,0.07441 c -0.23619,5.29e-4 -0.45083,0.137438 -0.55087,0.351401 -0.0383,0.08061 -0.0584,0.168635 -0.0589,0.257865 2e-5,0.104831 0.027,0.207884 0.0785,0.299207 0.108,0.19186 0.31106,0.310579 0.53123,0.310576 0.33662,-1.83e-4 0.60937,-0.273169 0.60927,-0.609783 -1.8e-4,-0.336412 -0.27286,-0.609084 -0.60927,-0.609266 z m -23.41562,0.157096 c 0.66976,1.88e-4 1.21266,0.543089 1.21284,1.212848 1.9e-4,0.572852 -0.40035,1.067768 -0.96066,1.187008 l 0.0589,2.48667 c 0.004,0.193003 -0.14858,0.353002 -0.34158,0.357601 -0.194,0.0054 -0.35536,-0.148069 -0.35967,-0.342099 l -0.0589,-2.5616 c -0.46165,-0.183862 -0.7645,-0.630664 -0.7643,-1.12758 1.8e-4,-0.669965 0.54341,-1.212951 1.21337,-1.212848 z m 0,0.603581 c -0.33661,-9.8e-5 -0.6096,0.272653 -0.60978,0.609267 5.3e-4,0.238752 0.1402,0.455276 0.3576,0.553971 0.0791,0.0364 0.1651,0.05543 0.25218,0.05581 0.0378,-5.29e-4 0.0756,-0.0044 0.11265,-0.01188 0.2876,-0.05425 0.49606,-0.305226 0.49661,-0.597894 -1.8e-4,-0.33641 -0.27285,-0.609079 -0.60926,-0.609267 z m 20.53208,2.52181 c 0.6119,2e-6 1.10794,0.496046 1.10794,1.107945 0,0.611897 -0.49604,1.10794 -1.10794,1.10794 -0.0861,-1.3e-5 -0.17199,-0.01008 -0.2558,-0.02997 l -8.13904,8.522482 c -0.066,0.0698 -0.15771,0.10938 -0.25373,0.10955 l -5.6534,-0.0165 c -0.17406,0.39083 -0.54941,0.64079 -0.96222,0.64079 -0.58597,-1.5e-4 -1.06091,-0.49615 -1.06091,-1.10794 0,-0.61179 0.47494,-1.10779 1.06091,-1.10794 0.50044,-2e-5 0.93287,0.365 1.03767,0.87591 l 5.42964,0.0145 7.93595,-8.31112 c -0.15987,-0.197358 -0.24708,-0.44365 -0.24702,-0.697632 0,-0.611904 0.49605,-1.107948 1.10795,-1.107943 z m -50.760727,0.09095 c -0.33641,1.88e-4 -0.609079,0.272857 -0.609259,0.609267 -1e-4,0.336812 0.272971,0.60988 0.60978,0.60978 0.250621,-5.29e-4 0.4753,-0.154601 0.56637,-0.388088 0.028,-0.07058 0.04249,-0.14577 0.04289,-0.221692 -5.29e-4,-0.019 -0.0021,-0.03797 -0.0041,-0.05684 -0.0294,-0.312457 -0.291291,-0.551503 -0.605132,-0.552421 z m 46.930467,0.33073 c -0.33661,-1.01e-4 -0.6096,0.272653 -0.60978,0.609266 -1e-4,0.336812 0.27297,0.609881 0.60978,0.60978 0.33662,-1.8e-4 0.60937,-0.273166 0.60927,-0.60978 -1.8e-4,-0.336415 -0.27286,-0.609084 -0.60927,-0.609266 z m -50.270826,0.363802 c -0.336619,-1.06e-4 -0.609611,0.27265 -0.609791,0.609266 2.65e-4,0.301157 0.220562,0.556935 0.518321,0.602028 0.0303,0.0049 0.06077,0.0075 0.09147,0.0078 0.16701,-5.29e-4 0.32654,-0.06935 0.441311,-0.190685 0.107559,-0.113054 0.167669,-0.263049 0.16795,-0.419095 -1.8e-4,-0.33641 -0.272852,-0.609079 -0.609261,-0.609266 z m 15.90807,2.042252 a 1.2131802,1.2131802 0 0 1 1.212846,1.212845 1.2131802,1.2131802 0 0 1 -1.212846,1.213363 1.2131802,1.2131802 0 0 1 -1.03301,-0.576707 l -0.51263,0.107487 -6.539141,7.044535 a 0.35003499,0.35003499 0 0 1 -0.224268,0.11162 l -2.066542,0.18914 c -0.689469,0.0635 -1.21367,0.63212 -1.222668,1.32446 l -0.01188,0.93793 a 1.2131802,1.2131802 0 0 1 0.65215,1.07487 1.2131802,1.2131802 0 0 1 -1.212842,1.21336 1.2131802,1.2131802 0 0 1 -1.213368,-1.21336 1.2131802,1.2131802 0 0 1 1.07642,-1.20509 l 0.01035,-0.81546 c 0.01307,-1.04475 0.81683,-1.91587 1.857248,-2.01176 l 1.933731,-0.17984 6.523641,-7.029028 a 0.35003499,0.35003499 0 0 1 0.18551,-0.10387 l 0.584459,-0.121957 a 1.2131802,1.2131802 0 0 1 1.21285,-1.172538 z m -1.21285,1.172538 0.627869,-0.130741 a 0.60959947,0.60959947 0 0 0 -0.02479,0.171048 0.60959947,0.60959947 0 0 0 0.252701,0.494546 0.60959947,0.60959947 0 0 0 0.357079,0.115236 0.60959947,0.60959947 0 0 0 0.609261,-0.609782 0.60959947,0.60959947 0 0 0 -0.609261,-0.609264 0.60959947,0.60959947 0 0 0 -0.584981,0.4377 z m 11.233936,0.481108 a 1.2131802,1.2131802 0 0 1 1.21285,1.212847 1.2131802,1.2131802 0 0 1 -1.21285,1.21337 1.2131802,1.2131802 0 0 1 -1.15186,-0.832 1.2131802,1.2131802 0 0 0 0,-5.3e-4 l -7.938536,0.061 -9.59476,9.39425 a 1.1079428,1.1079428 0 0 1 0.31523,0.7736 1.1079428,1.1079428 0 0 1 -1.107951,1.10794 1.1079428,1.1079428 0 0 1 -1.10794,-1.10794 1.1079428,1.1079428 0 0 1 1.10794,-1.10794 1.1079428,1.1079428 0 0 1 0.125582,0.007 h 5.29e-4 l 9.873301,-9.66504 a 0.35003499,0.35003499 0 0 1 0.24185,-0.101289 l 8.065655,-0.06046 a 1.2131802,1.2131802 0 0 1 1.17098,-0.895035 z m 0,0.603581 a 0.60959947,0.60959947 0 0 0 -0.53071,0.309025 0.60959947,0.60959947 0 0 0 -0.0791,0.300241 0.60959947,0.60959947 0 0 0 0.10749,0.34365 0.60959947,0.60959947 0 0 0 0.50229,0.26613 0.60959947,0.60959947 0 0 0 0.60927,-0.60978 0.60959947,0.60959947 0 0 0 -0.60927,-0.609266 z m 27.86497,0.336415 c 0.0928,-0.0024 0.18271,0.03184 0.25011,0.0956 0.14121,0.13306 0.14736,0.35559 0.0134,0.4961 l -2.39727,2.52336 v 5.3e-4 c 0.15002,0.19399 0.23144,0.43226 0.23151,0.67747 0,0.61191 -0.49604,1.10794 -1.10794,1.10794 -0.6119,2e-5 -1.10795,-0.49603 -1.10795,-1.10794 0,-0.61189 0.49605,-1.10794 1.10795,-1.10794 0.0959,-1.3e-4 0.19147,0.0122 0.28422,0.0367 l 2.48202,-2.61276 c 0.0637,-0.0672 0.15139,-0.106376 0.24391,-0.109041 z m -44.644295,0.341071 c 0.0931,-0.003 0.183708,0.0308 0.251658,0.0946 0.141031,0.13168 0.14886,0.35266 0.01757,0.49403 l -2.192631,2.35024 c 0.1031,0.13114 0.15916,0.29311 0.15916,0.45992 0,0.41098 -0.333158,0.74415 -0.744138,0.74415 -0.410983,0 -0.744141,-0.33317 -0.744141,-0.74415 -2.1e-5,-0.36689 0.267391,-0.67905 0.629939,-0.73535 l -0.193789,0.20825 0.194299,-0.20825 2.377641,-2.55127 c 0.0633,-0.0684 0.15127,-0.1088 0.24443,-0.11213 z m 25.433065,3.71967 c 0.6119,0 1.10794,0.49604 1.10794,1.10794 1.3e-4,0.1654 -0.0368,0.32873 -0.108,0.478 l 1.42627,1.34928 10.70684,0.0155 0.15813,-0.38086 c 0.0555,-0.13267 0.18643,-0.21794 0.33021,-0.21496 l 10.30273,0.19947 c 0.0894,0.002 0.17468,0.0383 0.23823,0.10129 l 3.37499,3.34708 c 0.16278,-0.0888 0.34526,-0.13539 0.53071,-0.13539 0.6119,-2e-5 1.10795,0.49604 1.10795,1.10794 0,0.61189 -0.49605,1.10795 -1.10795,1.10794 -0.6119,0 -1.10794,-0.49605 -1.10794,-1.10794 -6e-5,-0.15907 0.0341,-0.31628 0.10025,-0.46095 l -3.29024,-3.26285 -9.92394,-0.19122 -0.15658,0.37518 c -0.0548,0.13036 -0.1826,0.21499 -0.32401,0.21445 l -11.07788,-0.0155 c -0.0894,-3e-5 -0.17533,-0.0342 -0.24029,-0.0956 l -1.53376,-1.44901 c -0.15853,0.0829 -0.33477,0.12614 -0.51366,0.12609 -0.6119,0 -1.10794,-0.49604 -1.10794,-1.10794 0,-0.6119 0.49604,-1.10794 1.10794,-1.10794 z m -4.13825,2.52129 c 0.0928,-0.002 0.18271,0.0318 0.25011,0.0956 0.13984,0.13284 0.14597,0.35378 0.0134,0.49403 l -3.02721,3.20342 0.006,0.27337 c 0.40696,0.17476 0.67075,0.57511 0.67075,1.01802 0,0.61191 -0.49604,1.10795 -1.10794,1.10795 -0.61191,-1e-5 -1.10794,-0.49605 -1.10794,-1.10795 -8e-5,-0.51064 0.34886,-0.95519 0.84491,-1.07642 l -0.007,-0.34416 c -0.003,-0.0918 0.031,-0.18083 0.0935,-0.24805 l 3.12693,-3.30677 c 0.0638,-0.0673 0.15173,-0.10651 0.24443,-0.10904 z m 2.43241,1.88309 c 0.50445,-3e-5 0.94524,0.3407 1.07229,0.82889 l 14.00483,0.016 v -5.3e-4 c 0.12941,-0.24248 0.38195,-0.39389 0.6568,-0.39377 0.41098,0 0.74414,0.33316 0.74414,0.74414 0,0.41097 -0.33316,0.74414 -0.74414,0.74414 -0.27526,10e-5 -0.5281,-0.15176 -0.65732,-0.39481 l -14.05186,-0.0145 c -0.17093,0.4153 -0.57564,0.68634 -1.02474,0.68626 -0.6119,0 -1.10794,-0.49604 -1.10794,-1.10794 0,-0.6119 0.49604,-1.10794 1.10794,-1.10794 z m -29.139817,0.97151 a 0.60959947,0.60959947 0 0 0 -0.609788,0.60927 0.60959947,0.60959947 0 0 0 0.609788,0.60978 0.60959947,0.60959947 0 0 0 0.609261,-0.60978 0.60959947,0.60959947 0 0 0 -0.35347,-0.55139 0.60959947,0.60959947 0 0 0 -0.241839,-0.0568 0.60959947,0.60959947 0 0 0 -0.01394,-0.001 z m 7.253301,0.99839 a 0.34999999,0.34999999 0 0 1 0.24701,0.10181 0.34999999,0.34999999 0 0 1 0,0.49402 l -3.7362,3.73828 a 0.35003499,0.35003499 0 0 1 -0.242361,0.1018 l -2.82516,0.0455 a 1.2131802,1.2131802 0 0 1 -1.159608,0.85732 1.2131802,1.2131802 0 0 1 -1.213371,-1.21337 1.2131802,1.2131802 0 0 1 1.213371,-1.21284 1.2131802,1.2131802 0 0 1 1.162719,0.86764 l 2.669601,-0.0413 3.636989,-3.63698 a 0.34999999,0.34999999 0 0 1 0.24701,-0.10181 z m 35.636066,0.92811 c 0.29322,1e-5 0.5591,0.1722 0.67903,0.43977 l 5.36918,-0.0455 c 0.0916,-0.001 0.18007,0.0331 0.24649,0.0961 l 5.21622,4.98058 c 0.21083,-0.15941 0.46795,-0.2456 0.73226,-0.24547 0.66976,1.9e-4 1.21266,0.54309 1.21284,1.21285 1e-4,0.66996 -0.54288,1.21317 -1.21284,1.21336 -0.67016,1e-4 -1.21346,-0.5432 -1.21336,-1.21336 -2e-5,-0.13398 0.0222,-0.26704 0.0656,-0.39378 l -5.18159,-4.94905 -5.28495,0.046 c -0.1363,0.21579 -0.37367,0.34667 -0.6289,0.34675 -0.41098,0 -0.74414,-0.33316 -0.74414,-0.74414 0,-0.41097 0.33316,-0.74414 0.74414,-0.74414 z m -43.352385,2.58796 a 0.60959947,0.60959947 0 0 0 -0.609791,0.60926 0.60959947,0.60959947 0 0 0 0.609791,0.60978 0.60959947,0.60959947 0 0 0 0.55862,-0.36793 0.60959947,0.60959947 0 0 0 0.05064,-0.24185 0.60959947,0.60959947 0 0 0 -0.04444,-0.22737 0.60959947,0.60959947 0 0 0 -0.564819,-0.38189 z m 8.755528,0.0884 a 0.34999999,0.34999999 0 0 1 0.248571,0.10077 0.34999999,0.34999999 0 0 1 0.0041,0.49455 l -2.283061,2.31613 a 0.35003499,0.35003499 0 0 1 -0.250121,0.10387 l -10.265518,-0.017 a 0.74414057,0.74414057 0 0 1 -0.64751,0.37776 0.74414057,0.74414057 0 0 1 -0.74414,-0.74415 0.74414057,0.74414057 0 0 1 0.74414,-0.74414 0.74414057,0.74414057 0 0 1 0.665599,0.41083 l 10.102739,0.0155 2.17764,-2.20916 a 0.34999999,0.34999999 0 0 1 0.247531,-0.10491 z m 1.712561,1.81178 a 1.1079428,1.1079428 0 0 1 1.10794,1.10794 1.1079428,1.1079428 0 0 1 -1.10794,1.10795 1.1079428,1.1079428 0 0 1 -0.57516,-0.16072 l -1.323951,1.10123 a 0.35003499,0.35003499 0 0 1 -0.226859,0.0801 l -14.636311,-0.063 a 1.1079428,1.1079428 0 0 1 -1.047998,0.74827 1.1079428,1.1079428 0 0 1 -1.10794,-1.10794 1.1079428,1.1079428 0 0 1 1.10794,-1.10794 1.1079428,1.1079428 0 0 1 1.0542,0.76843 l 14.507118,0.063 1.221121,-1.01596 0.54828,-0.45682 -0.54828,0.45631 a 1.1079428,1.1079428 0 0 1 -0.0801,-0.4129 1.1079428,1.1079428 0 0 1 1.10794,-1.10794 z m 45.127476,1.341 c -0.12637,2.7e-4 -0.24952,0.0398 -0.35243,0.11317 -0.12719,0.0904 -0.21486,0.22618 -0.24495,0.37931 -0.008,0.0384 -0.012,0.0775 -0.0124,0.11678 -1e-4,0.33681 0.27297,0.60989 0.60978,0.60979 0.33661,-2e-4 0.60936,-0.27317 0.60926,-0.60979 -1.8e-4,-0.33641 -0.27285,-0.60908 -0.60926,-0.60926 z m -58.611405,3.19981 a 0.74414057,0.74414057 0 0 1 0.744138,0.74414 0.74414057,0.74414057 0 0 1 -0.744138,0.74414 0.74414057,0.74414057 0 0 1 -0.668181,-0.416 l -4.54442,0.077 c -0.203581,0.003 -0.365731,0.1542 -0.382929,0.35709 l -0.07596,0.89865 c -0.02828,0.33374 -0.176908,0.64658 -0.41806,0.87902 l -5.857528,5.64616 a 1.2131802,1.2131802 0 0 1 0.16847,0.61701 1.2131802,1.2131802 0 0 1 -1.21285,1.21337 1.2131802,1.2131802 0 0 1 -1.21336,-1.21337 1.2131802,1.2131802 0 0 1 1.21336,-1.21284 1.2131802,1.2131802 0 0 1 0.527619,0.12092 l 5.88853,-5.67562 c 0.11911,-0.11481 0.192709,-0.2687 0.206711,-0.43356 l 0.07648,-0.89866 c 0.04702,-0.55478 0.511448,-0.98847 1.06815,-0.99787 l 4.579559,-0.0775 a 0.74414057,0.74414057 0 0 1 0.644411,-0.37207 z m -12.99146,8.93795 a 0.60959947,0.60959947 0 0 0 -0.609782,0.60926 0.60959947,0.60959947 0 0 0 0.609782,0.60979 0.60959947,0.60959947 0 0 0 0.60927,-0.60979 0.60959947,0.60959947 0 0 0 -0.06356,-0.26716 0.60959947,0.60959947 0 0 0 -0.353989,-0.30955 0.60959947,0.60959947 0 0 0 -0.19172,-0.0326 z" /></clipPath><linearGradient
       inkscape:collect="always"
       xlink:href="#linearGradient513832"
       id="linearGradient513833"
       x1="40.710045"
       y1="2.2607169"
       x2="39.36824"
       y2="97.461105"
       gradientUnits="userSpaceOnUse" /><linearGradient
       inkscape:collect="always"
       xlink:href="#linearGradient513839"
       id="linearGradient513840"
       x1="97.444656"
       y1="4.3029699"
       x2="95.696297"
       y2="97.738197"
       gradientUnits="userSpaceOnUse" /></defs><path
     id="rect513839"
     style="opacity:1;fill:url(#linearGradient513840);fill-rule:nonzero;stroke-width:0.7;stroke-linecap:round;stroke-linejoin:round;paint-order:markers stroke fill"
     d="M 78.954354 4.3030965 A 8.5561494 4.8643055 59.2201 0 1 81.963989 7.8656697 A 8.5561494 4.8643055 59.2201 0 1 82.67454 9.2087402 C 100.18077 16.344618 112.51671 33.508201 112.51665 53.547635 C 112.5168 72.325245 101.27024 89.501493 84.141117 97.267963 C 86.378777 97.359863 88.565179 97.517464 90.799109 97.641584 C 106.21447 88.358004 115.935 71.517215 115.93504 53.547635 C 115.93509 30.213627 100.3224 10.519008 78.954354 4.3030965 z " /><path
     id="rect513838"
     style="opacity:1;fill:url(#linearGradient513833);fill-rule:nonzero;stroke-width:0.7;stroke-linecap:round;stroke-linejoin:round;paint-order:markers stroke fill"
     d="M 64.550065 2.2608439 C 36.170616 2.2607879 13.164509 25.222706 13.164571 53.547636 C 13.164555 59.480526 14.213295 65.297232 16.172656 70.761572 C 16.803979 70.121715 17.518393 69.506883 18.282088 68.946179 C 18.518468 68.772732 18.758788 68.605047 19.001941 68.443884 C 17.426556 63.701824 16.583488 58.682246 16.583484 53.547636 C 16.583468 48.083887 17.500701 42.833629 19.189526 37.942387 C 25.673328 19.16375 43.533063 5.6730467 64.550065 5.6730387 C 65.316505 5.6730384 66.07858 5.6907755 66.83623 5.7262655 C 66.354662 4.5509006 66.057593 3.3723492 65.96755 2.2799642 C 65.49654 2.2672242 65.024145 2.2608439 64.550065 2.2608439 z " /><path
     id="rect513832"
     style="opacity:1;fill:url(#linearGradient513833);fill-rule:nonzero;stroke-width:0.7;stroke-linecap:round;stroke-linejoin:round;paint-order:markers stroke fill"
     d="M 23.407357 78.037097 A 3.4065104 7.9375 74.826442 0 1 22.772253 78.221582 A 3.4065104 7.9375 74.826442 0 1 19.831864 78.760567 C 24.146341 86.411169 30.392655 92.978615 38.091215 97.641585 L 40.594421 97.641585 C 42.103583 97.547392 43.625635 97.453117 45.111975 97.387854 C 35.92658 93.253434 28.413549 86.397367 23.407357 78.037097 z " /><path
     id="path48"
     clip-path="none"
     style="fill:url(#linearGradient80);stroke-width:0.0660001;stroke-linecap:round;stroke-linejoin:round;paint-order:markers stroke fill"
     d="M 31.592387 81.664266 A 0.56224459 0.56224459 0 0 0 31.030147 82.226506 A 0.56224459 0.56224459 0 0 0 31.592387 82.788745 A 0.56224459 0.56224459 0 0 0 32.154626 82.226506 A 0.56224459 0.56224459 0 0 0 31.592387 81.664266 z " /><path
     id="path47"
     clip-path="none"
     style="fill:url(#linearGradient80);stroke-width:0.0660001;stroke-linecap:round;stroke-linejoin:round;paint-order:markers stroke fill"
     d="M 38.645703 73.418774 A 0.25 0.25 0 0 0 38.446232 73.515409 A 0.25 0.25 0 0 0 38.489124 73.866809 L 42.622205 77.095553 A 0.25 0.25 0 0 0 42.973604 77.052661 A 0.25 0.25 0 0 0 42.930713 76.700745 L 38.798149 73.472518 A 0.25 0.25 0 0 0 38.645703 73.418774 z " /><path
     id="path46"
     clip-path="none"
     style="fill:url(#linearGradient80);stroke-width:0.0660001;stroke-linecap:round;stroke-linejoin:round;paint-order:markers stroke fill"
     d="M 36.089787 76.189665 A 0.25 0.25 0 0 0 35.852592 76.333842 A 0.25 0.25 0 0 0 35.973515 76.665605 L 42.567428 79.739836 A 0.25 0.25 0 0 0 42.899707 79.618913 A 0.25 0.25 0 0 0 42.778267 79.286633 L 36.184871 76.212402 A 0.25 0.25 0 0 0 36.089787 76.189665 z " /><path
     id="path45"
     clip-path="none"
     style="fill:url(#linearGradient80);stroke-width:0.0660001;stroke-linecap:round;stroke-linejoin:round;paint-order:markers stroke fill"
     d="M 33.211926 81.976392 A 0.25 0.25 0 0 0 32.961812 82.226506 A 0.25 0.25 0 0 0 33.211926 82.476103 L 42.473893 82.476103 A 0.25 0.25 0 0 0 42.72349 82.226506 A 0.25 0.25 0 0 0 42.473893 81.976392 L 33.211926 81.976392 z " /><path
     id="path44"
     clip-path="none"
     style="fill:url(#linearGradient80);stroke-width:0.0660001;stroke-linecap:round;stroke-linejoin:round;paint-order:markers stroke fill"
     d="M 42.661995 84.689404 A 0.25 0.25 0 0 0 42.567428 84.712659 L 35.973515 87.78689 A 0.25 0.25 0 0 0 35.852592 88.118652 A 0.25 0.25 0 0 0 36.184871 88.240092 L 42.778267 85.165861 A 0.25 0.25 0 0 0 42.899707 84.833582 A 0.25 0.25 0 0 0 42.661995 84.689404 z " /><path
     id="path43"
     clip-path="none"
     style="fill:url(#linearGradient80);stroke-width:0.0660001;stroke-linecap:round;stroke-linejoin:round;paint-order:markers stroke fill"
     d="M 78.942468 76.859391 C 78.728598 76.859391 78.556445 77.032061 78.556445 77.245931 C 78.556445 77.459801 78.728598 77.631954 78.942468 77.631954 L 79.967729 77.631954 C 80.181609 77.631954 80.353752 77.459801 80.353752 77.245931 C 80.353752 77.032061 80.181609 76.859391 79.967729 76.859391 L 78.942468 76.859391 z " /><path
     id="path62"
     clip-path="none"
     style="fill:url(#linearGradient80);stroke-width:0.0660001;stroke-linecap:round;stroke-linejoin:round;paint-order:markers stroke fill"
     d="M 42.77465 87.302681 A 0.25 0.25 0 0 0 42.622205 87.355391 L 38.489124 90.585685 A 0.25 0.25 0 0 0 38.446232 90.935018 A 0.25 0.25 0 0 0 38.798149 90.978426 L 42.930713 87.749683 A 0.25 0.25 0 0 0 42.973604 87.40035 A 0.25 0.25 0 0 0 42.77465 87.302681 z " /><path
     id="path41"
     clip-path="none"
     style="fill:url(#linearGradient80);stroke-width:0.0660001;stroke-linecap:round;stroke-linejoin:round;paint-order:markers stroke fill"
     d="M 81.728861 66.672933 L 69.471729 66.67345 C 68.669719 66.67345 68.024272 67.318897 68.024272 68.120907 L 68.024272 96.399284 C 68.024272 96.520654 68.039263 96.63868 68.067163 96.7512 A 301.9136 195.36404 0 0 0 65.246663 96.741899 A 301.9136 195.36404 0 0 0 53.244295 96.908813 A 301.9136 195.36404 0 0 0 52.285181 96.922766 L 52.285181 96.922249 A 301.9136 195.36404 0 0 0 9.0082357 100.16133 A 301.9136 195.36404 0 0 0 1.2412679 101.18297 A 0.68693603 8.3667795 84.843688 0 0 0.0051676432 101.6801 A 0.68693603 8.3667795 84.843688 0 0 4.0932902 101.88319 A 415.47244 232.26733 0 0 1 10.566797 101.37366 A 415.47244 232.26733 0 0 1 65.246663 99.353109 A 415.47244 232.26733 0 0 1 119.92653 101.37366 A 415.47244 232.26733 0 0 1 126.40004 101.88319 A 8.3667795 0.68693603 5.1563123 0 0 130.48816 101.6801 A 8.3667795 0.68693603 5.1563123 0 0 129.25206 101.18297 A 301.9136 195.36404 0 0 0 121.48509 100.16133 A 301.9136 195.36404 0 0 0 83.007336 97.080379 C 83.115346 96.877459 83.176835 96.645547 83.176835 96.398767 L 83.176835 68.12039 C 83.176835 67.31838 82.53087 66.672933 81.728861 66.672933 z M 52.285181 96.922249 A 301.9136 195.36404 0 0 1 53.244295 96.908813 A 301.9136 195.36404 0 0 1 64.763489 96.742415 L 64.763489 96.244771 C 64.763489 95.734371 64.352498 95.323381 63.842098 95.323381 L 62.376038 95.323381 A 0.67210199 0.67210199 0 0 1 61.709412 94.73892 L 61.445345 92.731807 L 67.204167 92.731807 L 67.204167 89.001803 L 46.477266 89.001803 C 46.19371 89.001803 45.965153 88.773239 45.965153 88.489689 L 45.965153 73.78206 C 45.965153 73.4985 46.19371 73.270463 46.477266 73.270463 L 67.204167 73.270463 L 67.204167 71.498995 L 46.067989 71.498995 C 45.159036 71.498995 44.427262 72.230772 44.427262 73.139722 L 44.427262 91.091081 C 44.427262 92.000031 45.159036 92.731807 46.067989 92.731807 L 55.602291 92.731807 L 55.338224 94.73892 A 0.67210199 0.67210199 0 0 1 54.671598 95.323381 L 53.205538 95.323381 C 52.695138 95.323381 52.284147 95.734371 52.284147 96.244771 L 52.284147 96.875741 C 52.284147 96.89128 52.28458 96.90691 52.285181 96.922249 z M 70.847355 69.423669 L 80.353752 69.423669 C 80.915162 69.423669 81.367126 69.875634 81.367126 70.437044 C 81.367126 70.998454 80.915162 71.450419 80.353752 71.450419 L 70.847355 71.450419 C 70.285945 71.450419 69.83398 70.998454 69.83398 70.437044 C 69.83398 69.875634 70.285945 69.423669 70.847355 69.423669 z M 70.847355 72.906661 L 80.353752 72.906661 C 80.915162 72.906661 81.367126 73.358626 81.367126 73.920036 C 81.367126 74.481446 80.915162 74.933411 80.353752 74.933411 L 70.847355 74.933411 C 70.285945 74.933411 69.83398 74.481446 69.83398 73.920036 C 69.83398 73.358626 70.285945 72.906661 70.847355 72.906661 z M 70.847355 76.389136 L 80.353752 76.389136 C 80.915162 76.389136 81.367126 76.841091 81.367126 77.402511 C 81.367126 77.963921 80.915162 78.415885 80.353752 78.415885 L 70.847355 78.415885 C 70.285945 78.415885 69.83398 77.963921 69.83398 77.402511 C 69.83398 76.841091 70.285945 76.389136 70.847355 76.389136 z M 75.600553 87.857686 A 1.8096052 1.8096052 0 0 1 77.410262 89.667395 A 1.8096052 1.8096052 0 0 1 75.600553 91.477104 A 1.8096052 1.8096052 0 0 1 73.790845 89.667395 A 1.8096052 1.8096052 0 0 1 75.600553 87.857686 z M 58.524076 89.87255 A 0.80225825 0.80225825 0 0 1 59.326095 90.674569 A 0.80225825 0.80225825 0 0 1 58.524076 91.477104 A 0.80225825 0.80225825 0 0 1 57.721541 90.674569 A 0.80225825 0.80225825 0 0 1 58.524076 89.87255 z M 70.847355 94.026302 L 80.353752 94.026302 C 80.915162 94.026302 81.367126 94.284785 81.367126 94.605595 C 81.367126 94.926405 80.915162 95.184888 80.353752 95.184888 L 70.847355 95.184888 C 70.285945 95.184888 69.83398 94.926405 69.83398 94.605595 C 69.83398 94.284785 70.285945 94.026302 70.847355 94.026302 z " /><path
     id="path27"
     clip-path="none"
     style="fill:url(#linearGradient33);stroke-width:0.066;stroke-linecap:round;stroke-linejoin:round;paint-order:markers stroke fill"
     d="M 168.36271 169.24096 C 166.94421 169.33246 165.55332 169.66098 164.28647 170.34167 C 162.82534 171.08976 161.72111 172.58054 161.67681 174.25254 C 161.57388 175.59666 161.98932 177.04648 163.10515 177.88281 C 164.8756 179.24852 167.20253 179.30546 169.31511 179.68528 C 170.0963 179.83702 171.074 179.93436 171.53461 180.66558 C 171.88859 181.51716 171.05684 182.28506 170.26595 182.40243 C 167.73697 182.85546 165.05592 182.28484 162.86227 180.96686 C 162.33196 182.10906 161.80146 183.25081 161.27115 184.39301 C 163.38188 185.72318 165.9409 186.14357 168.39992 186.16757 C 170.14994 186.16957 171.94838 185.91898 173.50658 185.0772 C 174.99576 184.3359 176.14738 182.83018 176.16688 181.12602 C 176.16828 181.10806 176.16933 181.09026 176.1705 181.07228 C 176.18258 180.88662 176.18252 180.70004 176.1705 180.51417 C 176.0933 179.32034 175.52276 178.15815 174.5029 177.49265 C 172.61412 176.18006 170.23714 176.22833 168.0759 175.74237 C 167.3715 175.55166 166.35069 175.3797 166.23571 174.50627 C 166.12234 173.57016 167.12061 173.04485 167.91002 172.93582 C 169.99014 172.63622 172.20524 172.98583 174.02903 174.05204 C 174.55934 172.92004 175.08984 171.78838 175.62015 170.65638 C 174.69682 170.10106 173.6549 169.77763 172.60483 169.5629 C 171.22751 169.29506 169.78121 169.14945 168.36271 169.24096 z "
     transform="translate(-47.38198,-56.283513)" /><path
     id="path21"
     clip-path="none"
     style="fill:url(#linearGradient33);stroke-width:0.066;stroke-linecap:round;stroke-linejoin:round;paint-order:markers stroke fill"
     d="M 143.37922 163.22169 L 143.37922 185.92315 L 148.15206 185.92315 L 148.15206 181.74356 C 148.91698 180.98459 149.67782 180.22138 150.46251 179.48426 C 152.19086 181.63046 153.91937 183.77696 155.64772 185.92315 L 161.4298 185.92315 C 158.93589 182.75324 156.44199 179.58304 153.94809 176.41313 C 156.2867 174.14714 158.5097 171.76078 160.81795 169.46317 L 155.12734 169.46317 C 152.80215 171.66794 150.47725 173.87247 148.15206 176.07723 L 148.15206 163.22169 L 143.37922 163.22169 z "
     transform="translate(-47.38198,-56.283513)" /><path
     id="path20"
     clip-path="none"
     style="fill:url(#linearGradient33);stroke-width:0.066;stroke-linecap:round;stroke-linejoin:round;paint-order:markers stroke fill"
     d="M 136.43959 161.84503 C 135.63431 161.85846 134.81549 162.15074 134.26712 162.7566 C 133.51792 163.52569 133.38396 164.78302 133.88006 165.72128 C 134.3191 166.54034 135.20127 167.06826 136.11868 167.146 C 137.02579 167.2414 138.02635 167.06301 138.69837 166.40341 C 139.28921 165.85806 139.57633 165.03607 139.51899 164.24075 C 139.49421 163.55457 139.13954 162.90233 138.59295 162.49047 C 138.0386 162.03786 137.31676 161.84966 136.61064 161.84503 L 136.43959 161.84503 z "
     transform="translate(-47.38198,-56.283513)" /><path
     id="path19"
     clip-path="none"
     style="fill:url(#linearGradient33);stroke-width:0.066;stroke-linecap:round;stroke-linejoin:round;paint-order:markers stroke fill"
     d="M 134.16996 169.46317 L 134.16996 185.92315 L 138.9428 185.92315 L 138.9428 169.46317 L 134.16996 169.46317 z "
     transform="translate(-47.38198,-56.283513)" /><path
     id="path18"
     clip-path="none"
     style="fill:url(#linearGradient33);stroke-width:0.066;stroke-linecap:round;stroke-linejoin:round;paint-order:markers stroke fill"
     d="M 114.95667 164.50688 L 114.95667 185.92315 L 119.91295 185.92315 L 119.91295 178.12155 L 129.82553 178.12155 L 129.82553 174.14402 L 119.91295 174.14402 L 119.91295 168.4839 L 131.14121 168.4839 L 131.14121 164.50688 L 114.95667 164.50688 z "
     transform="translate(-47.38198,-56.283513)" /><path
     id="path16"
     clip-path="none"
     style="fill:url(#linearGradient33);stroke-width:0.066;stroke-linecap:round;stroke-linejoin:round;paint-order:markers stroke fill"
     d="M 103.23904 169.21822 C 101.32982 169.18632 99.301259 169.84205 98.068292 171.36383 L 98.068292 169.46317 L 93.509914 169.46317 L 93.509914 191.85818 L 98.282749 191.85818 L 98.282749 184.16925 C 100.80664 186.86289 105.34979 186.69787 108.19894 184.62038 C 112.66694 181.36244 112.53647 173.62654 107.89767 170.58868 C 106.52992 169.67691 104.88239 169.19357 103.23904 169.21822 z M 102.41273 173.13426 C 104.86962 173.0055 106.83042 175.4547 106.62384 177.81511 C 106.6572 180.05682 104.8771 182.31581 102.52435 182.26755 C 100.4577 182.35085 98.481794 180.74656 98.28895 178.65589 C 97.813029 176.39432 99.057963 173.62344 101.50736 173.22056 C 101.805 173.16026 102.10906 173.13136 102.41273 173.13426 z "
     transform="translate(-47.38198,-56.283513)" /><path
     id="rect31"
     clip-path="none"
     style="fill:url(#linearGradient33);stroke-width:0.066;stroke-linecap:round;stroke-linejoin:round;paint-order:markers stroke fill"
     d="M 49.086269 164.50688 L 49.086269 185.92315 L 54.042555 185.92315 L 54.042555 177.14229 L 63.771677 177.14229 L 63.771677 185.92315 L 68.727964 185.92315 L 68.727964 164.50688 L 63.771677 164.50688 L 63.771677 172.95081 L 54.042555 172.95081 L 54.042555 164.50688 L 49.086269 164.50688 z "
     transform="translate(-47.38198,-56.283513)" /><path
     id="rect2318"
     clip-path="url(#clipPath2319)"
     style="fill:url(#linearGradient2319);stroke-width:0.7;stroke-linecap:round;stroke-linejoin:round;paint-order:markers stroke fill"
     d="m 64.84105,56.283513 c 0,25.491812 0,50.983627 0,76.475437 28.90573,0 57.81146,0 86.71719,0 0,-25.49181 0,-50.983625 0,-76.475437 -28.90573,0 -57.81146,0 -86.71719,0 z"
     transform="translate(-48.659092,-56.283513)" /><script
     id="mesh_polyfill"
     type="text/javascript">
!function(){const t=&quot;http://www.w3.org/2000/svg&quot;,e=&quot;http://www.w3.org/1999/xlink&quot;,s=&quot;http://www.w3.org/1999/xhtml&quot;,r=2;if(document.createElementNS(t,&quot;meshgradient&quot;).x)return;const n=(t,e,s,r)=&gt;{let n=new x(.5*(e.x+s.x),.5*(e.y+s.y)),o=new x(.5*(t.x+e.x),.5*(t.y+e.y)),i=new x(.5*(s.x+r.x),.5*(s.y+r.y)),a=new x(.5*(n.x+o.x),.5*(n.y+o.y)),h=new x(.5*(n.x+i.x),.5*(n.y+i.y)),l=new x(.5*(a.x+h.x),.5*(a.y+h.y));return[[t,o,a,l],[l,h,i,r]]},o=t=&gt;{let e=t[0].distSquared(t[1]),s=t[2].distSquared(t[3]),r=.25*t[0].distSquared(t[2]),n=.25*t[1].distSquared(t[3]),o=e&gt;s?e:s,i=r&gt;n?r:n;return 18*(o&gt;i?o:i)},i=(t,e)=&gt;Math.sqrt(t.distSquared(e)),a=(t,e)=&gt;t.scale(2/3).add(e.scale(1/3)),h=t=&gt;{let e,s,r,n,o,i,a,h=new g;return t.match(/(\w+\(\s*[^)]+\))+/g).forEach(t=&gt;{let l=t.match(/[\w.-]+/g),d=l.shift();switch(d){case&quot;translate&quot;:2===l.length?e=new g(1,0,0,1,l[0],l[1]):(console.error(&quot;mesh.js: translate does not have 2 arguments!&quot;),e=new g(1,0,0,1,0,0)),h=h.append(e);break;case&quot;scale&quot;:1===l.length?s=new g(l[0],0,0,l[0],0,0):2===l.length?s=new g(l[0],0,0,l[1],0,0):(console.error(&quot;mesh.js: scale does not have 1 or 2 arguments!&quot;),s=new g(1,0,0,1,0,0)),h=h.append(s);break;case&quot;rotate&quot;:if(3===l.length&amp;&amp;(e=new g(1,0,0,1,l[1],l[2]),h=h.append(e)),l[0]){r=l[0]*Math.PI/180;let t=Math.cos(r),e=Math.sin(r);Math.abs(t)&lt;1e-16&amp;&amp;(t=0),Math.abs(e)&lt;1e-16&amp;&amp;(e=0),a=new g(t,e,-e,t,0,0),h=h.append(a)}else console.error(&quot;math.js: No argument to rotate transform!&quot;);3===l.length&amp;&amp;(e=new g(1,0,0,1,-l[1],-l[2]),h=h.append(e));break;case&quot;skewX&quot;:l[0]?(r=l[0]*Math.PI/180,n=Math.tan(r),o=new g(1,0,n,1,0,0),h=h.append(o)):console.error(&quot;math.js: No argument to skewX transform!&quot;);break;case&quot;skewY&quot;:l[0]?(r=l[0]*Math.PI/180,n=Math.tan(r),i=new g(1,n,0,1,0,0),h=h.append(i)):console.error(&quot;math.js: No argument to skewY transform!&quot;);break;case&quot;matrix&quot;:6===l.length?h=h.append(new g(...l)):console.error(&quot;math.js: Incorrect number of arguments for matrix!&quot;);break;default:console.error(&quot;mesh.js: Unhandled transform type: &quot;+d)}}),h},l=t=&gt;{let e=[],s=t.split(/[ ,]+/);for(let t=0,r=s.length-1;t&lt;r;t+=2)e.push(new x(parseFloat(s[t]),parseFloat(s[t+1])));return e},d=(t,e)=&gt;{for(let s in e)t.setAttribute(s,e[s])},c=(t,e,s,r,n)=&gt;{let o,i,a=[0,0,0,0];for(let h=0;h&lt;3;++h)e[h]&lt;t[h]&amp;&amp;e[h]&lt;s[h]||t[h]&lt;e[h]&amp;&amp;s[h]&lt;e[h]?a[h]=0:(a[h]=.5*((e[h]-t[h])/r+(s[h]-e[h])/n),o=Math.abs(3*(e[h]-t[h])/r),i=Math.abs(3*(s[h]-e[h])/n),a[h]&gt;o?a[h]=o:a[h]&gt;i&amp;&amp;(a[h]=i));return a},u=[[1,0,0,0,0,0,0,0,0,0,0,0,0,0,0,0],[0,0,0,0,1,0,0,0,0,0,0,0,0,0,0,0],[-3,3,0,0,-2,-1,0,0,0,0,0,0,0,0,0,0],[2,-2,0,0,1,1,0,0,0,0,0,0,0,0,0,0],[0,0,0,0,0,0,0,0,1,0,0,0,0,0,0,0],[0,0,0,0,0,0,0,0,0,0,0,0,1,0,0,0],[0,0,0,0,0,0,0,0,-3,3,0,0,-2,-1,0,0],[0,0,0,0,0,0,0,0,2,-2,0,0,1,1,0,0],[-3,0,3,0,0,0,0,0,-2,0,-1,0,0,0,0,0],[0,0,0,0,-3,0,3,0,0,0,0,0,-2,0,-1,0],[9,-9,-9,9,6,3,-6,-3,6,-6,3,-3,4,2,2,1],[-6,6,6,-6,-3,-3,3,3,-4,4,-2,2,-2,-2,-1,-1],[2,0,-2,0,0,0,0,0,1,0,1,0,0,0,0,0],[0,0,0,0,2,0,-2,0,0,0,0,0,1,0,1,0],[-6,6,6,-6,-4,-2,4,2,-3,3,-3,3,-2,-1,-2,-1],[4,-4,-4,4,2,2,-2,-2,2,-2,2,-2,1,1,1,1]],f=t=&gt;{let e=[];for(let s=0;s&lt;16;++s){e[s]=0;for(let r=0;r&lt;16;++r)e[s]+=u[s][r]*t[r]}return e},p=(t,e,s)=&gt;{const r=e*e,n=s*s,o=e*e*e,i=s*s*s;return t[0]+t[1]*e+t[2]*r+t[3]*o+t[4]*s+t[5]*s*e+t[6]*s*r+t[7]*s*o+t[8]*n+t[9]*n*e+t[10]*n*r+t[11]*n*o+t[12]*i+t[13]*i*e+t[14]*i*r+t[15]*i*o},y=t=&gt;{let e=[],s=[],r=[];for(let s=0;s&lt;4;++s)e[s]=[],e[s][0]=n(t[0][s],t[1][s],t[2][s],t[3][s]),e[s][1]=[],e[s][1].push(...n(...e[s][0][0])),e[s][1].push(...n(...e[s][0][1])),e[s][2]=[],e[s][2].push(...n(...e[s][1][0])),e[s][2].push(...n(...e[s][1][1])),e[s][2].push(...n(...e[s][1][2])),e[s][2].push(...n(...e[s][1][3]));for(let t=0;t&lt;8;++t){s[t]=[];for(let r=0;r&lt;4;++r)s[t][r]=[],s[t][r][0]=n(e[0][2][t][r],e[1][2][t][r],e[2][2][t][r],e[3][2][t][r]),s[t][r][1]=[],s[t][r][1].push(...n(...s[t][r][0][0])),s[t][r][1].push(...n(...s[t][r][0][1])),s[t][r][2]=[],s[t][r][2].push(...n(...s[t][r][1][0])),s[t][r][2].push(...n(...s[t][r][1][1])),s[t][r][2].push(...n(...s[t][r][1][2])),s[t][r][2].push(...n(...s[t][r][1][3]))}for(let t=0;t&lt;8;++t){r[t]=[];for(let e=0;e&lt;8;++e)r[t][e]=[],r[t][e][0]=s[t][0][2][e],r[t][e][1]=s[t][1][2][e],r[t][e][2]=s[t][2][2][e],r[t][e][3]=s[t][3][2][e]}return r};class x{constructor(t,e){this.x=t||0,this.y=e||0}toString(){return`(x=${this.x}, y=${this.y})`}clone(){return new x(this.x,this.y)}add(t){return new x(this.x+t.x,this.y+t.y)}scale(t){return void 0===t.x?new x(this.x*t,this.y*t):new x(this.x*t.x,this.y*t.y)}distSquared(t){let e=this.x-t.x,s=this.y-t.y;return e*e+s*s}transform(t){let e=this.x*t.a+this.y*t.c+t.e,s=this.x*t.b+this.y*t.d+t.f;return new x(e,s)}}class g{constructor(t,e,s,r,n,o){void 0===t?(this.a=1,this.b=0,this.c=0,this.d=1,this.e=0,this.f=0):(this.a=t,this.b=e,this.c=s,this.d=r,this.e=n,this.f=o)}toString(){return`affine: ${this.a} ${this.c} ${this.e} \n       ${this.b} ${this.d} ${this.f}`}append(t){t instanceof g||console.error(&quot;mesh.js: argument to Affine.append is not affine!&quot;);let e=this.a*t.a+this.c*t.b,s=this.b*t.a+this.d*t.b,r=this.a*t.c+this.c*t.d,n=this.b*t.c+this.d*t.d,o=this.a*t.e+this.c*t.f+this.e,i=this.b*t.e+this.d*t.f+this.f;return new g(e,s,r,n,o,i)}}class w{constructor(t,e){this.nodes=t,this.colors=e}paintCurve(t,e){if(o(this.nodes)&gt;r){const s=n(...this.nodes);let r=[[],[]],o=[[],[]];for(let t=0;t&lt;4;++t)r[0][t]=this.colors[0][t],r[1][t]=(this.colors[0][t]+this.colors[1][t])/2,o[0][t]=r[1][t],o[1][t]=this.colors[1][t];let i=new w(s[0],r),a=new w(s[1],o);i.paintCurve(t,e),a.paintCurve(t,e)}else{let s=Math.round(this.nodes[0].x);if(s&gt;=0&amp;&amp;s&lt;e){let r=4*(~~this.nodes[0].y*e+s);t[r]=Math.round(this.colors[0][0]),t[r+1]=Math.round(this.colors[0][1]),t[r+2]=Math.round(this.colors[0][2]),t[r+3]=Math.round(this.colors[0][3])}}}}class m{constructor(t,e){this.nodes=t,this.colors=e}split(){let t=[[],[],[],[]],e=[[],[],[],[]],s=[[[],[]],[[],[]]],r=[[[],[]],[[],[]]];for(let s=0;s&lt;4;++s){const r=n(this.nodes[0][s],this.nodes[1][s],this.nodes[2][s],this.nodes[3][s]);t[0][s]=r[0][0],t[1][s]=r[0][1],t[2][s]=r[0][2],t[3][s]=r[0][3],e[0][s]=r[1][0],e[1][s]=r[1][1],e[2][s]=r[1][2],e[3][s]=r[1][3]}for(let t=0;t&lt;4;++t)s[0][0][t]=this.colors[0][0][t],s[0][1][t]=this.colors[0][1][t],s[1][0][t]=(this.colors[0][0][t]+this.colors[1][0][t])/2,s[1][1][t]=(this.colors[0][1][t]+this.colors[1][1][t])/2,r[0][0][t]=s[1][0][t],r[0][1][t]=s[1][1][t],r[1][0][t]=this.colors[1][0][t],r[1][1][t]=this.colors[1][1][t];return[new m(t,s),new m(e,r)]}paint(t,e){let s,n=!1;for(let t=0;t&lt;4;++t)if((s=o([this.nodes[0][t],this.nodes[1][t],this.nodes[2][t],this.nodes[3][t]]))&gt;r){n=!0;break}if(n){let s=this.split();s[0].paint(t,e),s[1].paint(t,e)}else{new w([...this.nodes[0]],[...this.colors[0]]).paintCurve(t,e)}}}class b{constructor(t){this.readMesh(t),this.type=t.getAttribute(&quot;type&quot;)||&quot;bilinear&quot;}readMesh(t){let e=[[]],s=[[]],r=Number(t.getAttribute(&quot;x&quot;)),n=Number(t.getAttribute(&quot;y&quot;));e[0][0]=new x(r,n);let o=t.children;for(let t=0,r=o.length;t&lt;r;++t){e[3*t+1]=[],e[3*t+2]=[],e[3*t+3]=[],s[t+1]=[];let r=o[t].children;for(let n=0,o=r.length;n&lt;o;++n){let o=r[n].children;for(let r=0,i=o.length;r&lt;i;++r){let i=r;0!==t&amp;&amp;++i;let h,d=o[r].getAttribute(&quot;path&quot;),c=&quot;l&quot;;null!=d&amp;&amp;(c=(h=d.match(/\s*([lLcC])\s*(.*)/))[1]);let u=l(h[2]);switch(c){case&quot;l&quot;:0===i?(e[3*t][3*n+3]=u[0].add(e[3*t][3*n]),e[3*t][3*n+1]=a(e[3*t][3*n],e[3*t][3*n+3]),e[3*t][3*n+2]=a(e[3*t][3*n+3],e[3*t][3*n])):1===i?(e[3*t+3][3*n+3]=u[0].add(e[3*t][3*n+3]),e[3*t+1][3*n+3]=a(e[3*t][3*n+3],e[3*t+3][3*n+3]),e[3*t+2][3*n+3]=a(e[3*t+3][3*n+3],e[3*t][3*n+3])):2===i?(0===n&amp;&amp;(e[3*t+3][3*n+0]=u[0].add(e[3*t+3][3*n+3])),e[3*t+3][3*n+1]=a(e[3*t+3][3*n],e[3*t+3][3*n+3]),e[3*t+3][3*n+2]=a(e[3*t+3][3*n+3],e[3*t+3][3*n])):(e[3*t+1][3*n]=a(e[3*t][3*n],e[3*t+3][3*n]),e[3*t+2][3*n]=a(e[3*t+3][3*n],e[3*t][3*n]));break;case&quot;L&quot;:0===i?(e[3*t][3*n+3]=u[0],e[3*t][3*n+1]=a(e[3*t][3*n],e[3*t][3*n+3]),e[3*t][3*n+2]=a(e[3*t][3*n+3],e[3*t][3*n])):1===i?(e[3*t+3][3*n+3]=u[0],e[3*t+1][3*n+3]=a(e[3*t][3*n+3],e[3*t+3][3*n+3]),e[3*t+2][3*n+3]=a(e[3*t+3][3*n+3],e[3*t][3*n+3])):2===i?(0===n&amp;&amp;(e[3*t+3][3*n+0]=u[0]),e[3*t+3][3*n+1]=a(e[3*t+3][3*n],e[3*t+3][3*n+3]),e[3*t+3][3*n+2]=a(e[3*t+3][3*n+3],e[3*t+3][3*n])):(e[3*t+1][3*n]=a(e[3*t][3*n],e[3*t+3][3*n]),e[3*t+2][3*n]=a(e[3*t+3][3*n],e[3*t][3*n]));break;case&quot;c&quot;:0===i?(e[3*t][3*n+1]=u[0].add(e[3*t][3*n]),e[3*t][3*n+2]=u[1].add(e[3*t][3*n]),e[3*t][3*n+3]=u[2].add(e[3*t][3*n])):1===i?(e[3*t+1][3*n+3]=u[0].add(e[3*t][3*n+3]),e[3*t+2][3*n+3]=u[1].add(e[3*t][3*n+3]),e[3*t+3][3*n+3]=u[2].add(e[3*t][3*n+3])):2===i?(e[3*t+3][3*n+2]=u[0].add(e[3*t+3][3*n+3]),e[3*t+3][3*n+1]=u[1].add(e[3*t+3][3*n+3]),0===n&amp;&amp;(e[3*t+3][3*n+0]=u[2].add(e[3*t+3][3*n+3]))):(e[3*t+2][3*n]=u[0].add(e[3*t+3][3*n]),e[3*t+1][3*n]=u[1].add(e[3*t+3][3*n]));break;case&quot;C&quot;:0===i?(e[3*t][3*n+1]=u[0],e[3*t][3*n+2]=u[1],e[3*t][3*n+3]=u[2]):1===i?(e[3*t+1][3*n+3]=u[0],e[3*t+2][3*n+3]=u[1],e[3*t+3][3*n+3]=u[2]):2===i?(e[3*t+3][3*n+2]=u[0],e[3*t+3][3*n+1]=u[1],0===n&amp;&amp;(e[3*t+3][3*n+0]=u[2])):(e[3*t+2][3*n]=u[0],e[3*t+1][3*n]=u[1]);break;default:console.error(&quot;mesh.js: &quot;+c+&quot; invalid path type.&quot;)}if(0===t&amp;&amp;0===n||r&gt;0){let e=window.getComputedStyle(o[r]).stopColor.match(/^rgb\s*\(\s*(\d+)\s*,\s*(\d+)\s*,\s*(\d+)\s*\)$/i),a=window.getComputedStyle(o[r]).stopOpacity,h=255;a&amp;&amp;(h=Math.floor(255*a)),e&amp;&amp;(0===i?(s[t][n]=[],s[t][n][0]=Math.floor(e[1]),s[t][n][1]=Math.floor(e[2]),s[t][n][2]=Math.floor(e[3]),s[t][n][3]=h):1===i?(s[t][n+1]=[],s[t][n+1][0]=Math.floor(e[1]),s[t][n+1][1]=Math.floor(e[2]),s[t][n+1][2]=Math.floor(e[3]),s[t][n+1][3]=h):2===i?(s[t+1][n+1]=[],s[t+1][n+1][0]=Math.floor(e[1]),s[t+1][n+1][1]=Math.floor(e[2]),s[t+1][n+1][2]=Math.floor(e[3]),s[t+1][n+1][3]=h):3===i&amp;&amp;(s[t+1][n]=[],s[t+1][n][0]=Math.floor(e[1]),s[t+1][n][1]=Math.floor(e[2]),s[t+1][n][2]=Math.floor(e[3]),s[t+1][n][3]=h))}}e[3*t+1][3*n+1]=new x,e[3*t+1][3*n+2]=new x,e[3*t+2][3*n+1]=new x,e[3*t+2][3*n+2]=new x,e[3*t+1][3*n+1].x=(-4*e[3*t][3*n].x+6*(e[3*t][3*n+1].x+e[3*t+1][3*n].x)+-2*(e[3*t][3*n+3].x+e[3*t+3][3*n].x)+3*(e[3*t+3][3*n+1].x+e[3*t+1][3*n+3].x)+-1*e[3*t+3][3*n+3].x)/9,e[3*t+1][3*n+2].x=(-4*e[3*t][3*n+3].x+6*(e[3*t][3*n+2].x+e[3*t+1][3*n+3].x)+-2*(e[3*t][3*n].x+e[3*t+3][3*n+3].x)+3*(e[3*t+3][3*n+2].x+e[3*t+1][3*n].x)+-1*e[3*t+3][3*n].x)/9,e[3*t+2][3*n+1].x=(-4*e[3*t+3][3*n].x+6*(e[3*t+3][3*n+1].x+e[3*t+2][3*n].x)+-2*(e[3*t+3][3*n+3].x+e[3*t][3*n].x)+3*(e[3*t][3*n+1].x+e[3*t+2][3*n+3].x)+-1*e[3*t][3*n+3].x)/9,e[3*t+2][3*n+2].x=(-4*e[3*t+3][3*n+3].x+6*(e[3*t+3][3*n+2].x+e[3*t+2][3*n+3].x)+-2*(e[3*t+3][3*n].x+e[3*t][3*n+3].x)+3*(e[3*t][3*n+2].x+e[3*t+2][3*n].x)+-1*e[3*t][3*n].x)/9,e[3*t+1][3*n+1].y=(-4*e[3*t][3*n].y+6*(e[3*t][3*n+1].y+e[3*t+1][3*n].y)+-2*(e[3*t][3*n+3].y+e[3*t+3][3*n].y)+3*(e[3*t+3][3*n+1].y+e[3*t+1][3*n+3].y)+-1*e[3*t+3][3*n+3].y)/9,e[3*t+1][3*n+2].y=(-4*e[3*t][3*n+3].y+6*(e[3*t][3*n+2].y+e[3*t+1][3*n+3].y)+-2*(e[3*t][3*n].y+e[3*t+3][3*n+3].y)+3*(e[3*t+3][3*n+2].y+e[3*t+1][3*n].y)+-1*e[3*t+3][3*n].y)/9,e[3*t+2][3*n+1].y=(-4*e[3*t+3][3*n].y+6*(e[3*t+3][3*n+1].y+e[3*t+2][3*n].y)+-2*(e[3*t+3][3*n+3].y+e[3*t][3*n].y)+3*(e[3*t][3*n+1].y+e[3*t+2][3*n+3].y)+-1*e[3*t][3*n+3].y)/9,e[3*t+2][3*n+2].y=(-4*e[3*t+3][3*n+3].y+6*(e[3*t+3][3*n+2].y+e[3*t+2][3*n+3].y)+-2*(e[3*t+3][3*n].y+e[3*t][3*n+3].y)+3*(e[3*t][3*n+2].y+e[3*t+2][3*n].y)+-1*e[3*t][3*n].y)/9}}this.nodes=e,this.colors=s}paintMesh(t,e){let s=(this.nodes.length-1)/3,r=(this.nodes[0].length-1)/3;if(&quot;bilinear&quot;===this.type||s&lt;2||r&lt;2){let n;for(let o=0;o&lt;s;++o)for(let s=0;s&lt;r;++s){let r=[];for(let t=3*o,e=3*o+4;t&lt;e;++t)r.push(this.nodes[t].slice(3*s,3*s+4));let i=[];i.push(this.colors[o].slice(s,s+2)),i.push(this.colors[o+1].slice(s,s+2)),(n=new m(r,i)).paint(t,e)}}else{let n,o,a,h,l,d,u;const x=s,g=r;s++,r++;let w=new Array(s);for(let t=0;t&lt;s;++t){w[t]=new Array(r);for(let e=0;e&lt;r;++e)w[t][e]=[],w[t][e][0]=this.nodes[3*t][3*e],w[t][e][1]=this.colors[t][e]}for(let t=0;t&lt;s;++t)for(let e=0;e&lt;r;++e)0!==t&amp;&amp;t!==x&amp;&amp;(n=i(w[t-1][e][0],w[t][e][0]),o=i(w[t+1][e][0],w[t][e][0]),w[t][e][2]=c(w[t-1][e][1],w[t][e][1],w[t+1][e][1],n,o)),0!==e&amp;&amp;e!==g&amp;&amp;(n=i(w[t][e-1][0],w[t][e][0]),o=i(w[t][e+1][0],w[t][e][0]),w[t][e][3]=c(w[t][e-1][1],w[t][e][1],w[t][e+1][1],n,o));for(let t=0;t&lt;r;++t){w[0][t][2]=[],w[x][t][2]=[];for(let e=0;e&lt;4;++e)n=i(w[1][t][0],w[0][t][0]),o=i(w[x][t][0],w[x-1][t][0]),w[0][t][2][e]=n&gt;0?2*(w[1][t][1][e]-w[0][t][1][e])/n-w[1][t][2][e]:0,w[x][t][2][e]=o&gt;0?2*(w[x][t][1][e]-w[x-1][t][1][e])/o-w[x-1][t][2][e]:0}for(let t=0;t&lt;s;++t){w[t][0][3]=[],w[t][g][3]=[];for(let e=0;e&lt;4;++e)n=i(w[t][1][0],w[t][0][0]),o=i(w[t][g][0],w[t][g-1][0]),w[t][0][3][e]=n&gt;0?2*(w[t][1][1][e]-w[t][0][1][e])/n-w[t][1][3][e]:0,w[t][g][3][e]=o&gt;0?2*(w[t][g][1][e]-w[t][g-1][1][e])/o-w[t][g-1][3][e]:0}for(let s=0;s&lt;x;++s)for(let r=0;r&lt;g;++r){let n=i(w[s][r][0],w[s+1][r][0]),o=i(w[s][r+1][0],w[s+1][r+1][0]),c=i(w[s][r][0],w[s][r+1][0]),x=i(w[s+1][r][0],w[s+1][r+1][0]),g=[[],[],[],[]];for(let t=0;t&lt;4;++t){(d=[])[0]=w[s][r][1][t],d[1]=w[s+1][r][1][t],d[2]=w[s][r+1][1][t],d[3]=w[s+1][r+1][1][t],d[4]=w[s][r][2][t]*n,d[5]=w[s+1][r][2][t]*n,d[6]=w[s][r+1][2][t]*o,d[7]=w[s+1][r+1][2][t]*o,d[8]=w[s][r][3][t]*c,d[9]=w[s+1][r][3][t]*x,d[10]=w[s][r+1][3][t]*c,d[11]=w[s+1][r+1][3][t]*x,d[12]=0,d[13]=0,d[14]=0,d[15]=0,u=f(d);for(let e=0;e&lt;9;++e){g[t][e]=[];for(let s=0;s&lt;9;++s)g[t][e][s]=p(u,e/8,s/8),g[t][e][s]&gt;255?g[t][e][s]=255:g[t][e][s]&lt;0&amp;&amp;(g[t][e][s]=0)}}h=[];for(let t=3*s,e=3*s+4;t&lt;e;++t)h.push(this.nodes[t].slice(3*r,3*r+4));l=y(h);for(let s=0;s&lt;8;++s)for(let r=0;r&lt;8;++r)(a=new m(l[s][r],[[[g[0][s][r],g[1][s][r],g[2][s][r],g[3][s][r]],[g[0][s][r+1],g[1][s][r+1],g[2][s][r+1],g[3][s][r+1]]],[[g[0][s+1][r],g[1][s+1][r],g[2][s+1][r],g[3][s+1][r]],[g[0][s+1][r+1],g[1][s+1][r+1],g[2][s+1][r+1],g[3][s+1][r+1]]]])).paint(t,e)}}}transform(t){if(t instanceof x)for(let e=0,s=this.nodes.length;e&lt;s;++e)for(let s=0,r=this.nodes[0].length;s&lt;r;++s)this.nodes[e][s]=this.nodes[e][s].add(t);else if(t instanceof g)for(let e=0,s=this.nodes.length;e&lt;s;++e)for(let s=0,r=this.nodes[0].length;s&lt;r;++s)this.nodes[e][s]=this.nodes[e][s].transform(t)}scale(t){for(let e=0,s=this.nodes.length;e&lt;s;++e)for(let s=0,r=this.nodes[0].length;s&lt;r;++s)this.nodes[e][s]=this.nodes[e][s].scale(t)}}document.querySelectorAll(&quot;rect,circle,ellipse,path,text&quot;).forEach((r,n)=&gt;{let o=r.getAttribute(&quot;id&quot;);o||(o=&quot;patchjs_shape&quot;+n,r.setAttribute(&quot;id&quot;,o));const i=r.style.fill.match(/^url\(\s*&quot;?\s*#([^\s&quot;]+)&quot;?\s*\)/),a=r.style.stroke.match(/^url\(\s*&quot;?\s*#([^\s&quot;]+)&quot;?\s*\)/);if(i&amp;&amp;i[1]){const a=document.getElementById(i[1]);if(a&amp;&amp;&quot;meshgradient&quot;===a.nodeName){const i=r.getBBox();let l=document.createElementNS(s,&quot;canvas&quot;);d(l,{width:i.width,height:i.height});const c=l.getContext(&quot;2d&quot;);let u=c.createImageData(i.width,i.height);const f=new b(a);&quot;objectBoundingBox&quot;===a.getAttribute(&quot;gradientUnits&quot;)&amp;&amp;f.scale(new x(i.width,i.height));const p=a.getAttribute(&quot;gradientTransform&quot;);null!=p&amp;&amp;f.transform(h(p)),&quot;userSpaceOnUse&quot;===a.getAttribute(&quot;gradientUnits&quot;)&amp;&amp;f.transform(new x(-i.x,-i.y)),f.paintMesh(u.data,l.width),c.putImageData(u,0,0);const y=document.createElementNS(t,&quot;image&quot;);d(y,{width:i.width,height:i.height,x:i.x,y:i.y});let g=l.toDataURL();y.setAttributeNS(e,&quot;xlink:href&quot;,g),r.parentNode.insertBefore(y,r),r.style.fill=&quot;none&quot;;const w=document.createElementNS(t,&quot;use&quot;);w.setAttributeNS(e,&quot;xlink:href&quot;,&quot;#&quot;+o);const m=&quot;patchjs_clip&quot;+n,M=document.createElementNS(t,&quot;clipPath&quot;);M.setAttribute(&quot;id&quot;,m),M.appendChild(w),r.parentElement.insertBefore(M,r),y.setAttribute(&quot;clip-path&quot;,&quot;url(#&quot;+m+&quot;)&quot;),u=null,l=null,g=null}}if(a&amp;&amp;a[1]){const o=document.getElementById(a[1]);if(o&amp;&amp;&quot;meshgradient&quot;===o.nodeName){const i=parseFloat(r.style.strokeWidth.slice(0,-2))*(parseFloat(r.style.strokeMiterlimit)||parseFloat(r.getAttribute(&quot;stroke-miterlimit&quot;))||1),a=r.getBBox(),l=Math.trunc(a.width+i),c=Math.trunc(a.height+i),u=Math.trunc(a.x-i/2),f=Math.trunc(a.y-i/2);let p=document.createElementNS(s,&quot;canvas&quot;);d(p,{width:l,height:c});const y=p.getContext(&quot;2d&quot;);let g=y.createImageData(l,c);const w=new b(o);&quot;objectBoundingBox&quot;===o.getAttribute(&quot;gradientUnits&quot;)&amp;&amp;w.scale(new x(l,c));const m=o.getAttribute(&quot;gradientTransform&quot;);null!=m&amp;&amp;w.transform(h(m)),&quot;userSpaceOnUse&quot;===o.getAttribute(&quot;gradientUnits&quot;)&amp;&amp;w.transform(new x(-u,-f)),w.paintMesh(g.data,p.width),y.putImageData(g,0,0);const M=document.createElementNS(t,&quot;image&quot;);d(M,{width:l,height:c,x:0,y:0});let S=p.toDataURL();M.setAttributeNS(e,&quot;xlink:href&quot;,S);const k=&quot;pattern_clip&quot;+n,A=document.createElementNS(t,&quot;pattern&quot;);d(A,{id:k,patternUnits:&quot;userSpaceOnUse&quot;,width:l,height:c,x:u,y:f}),A.appendChild(M),o.parentNode.appendChild(A),r.style.stroke=&quot;url(#&quot;+k+&quot;)&quot;,g=null,p=null,S=null}}})}();
</script><path
     d="m 32.695162,129.88458 c 1.712745,-0.007 3.245777,-0.37481 4.598686,-1.10174 1.366559,-0.73427 2.43766,-1.7337 3.212723,-2.99827 0.775063,-1.28497 1.162203,-2.74322 1.162203,-4.37493 0,-1.67251 -0.38714,-3.14084 -1.162203,-4.40541 -0.775063,-1.26458 -1.846164,-2.25391 -3.212723,-2.96778 -0.328729,-0.17664 -0.668022,-0.33198 -1.018026,-0.46612 -0.183793,-0.0704 -0.33538,0.0383 -0.33538,0.23513 v 4.62194 c 0.125182,0.16603 0.239716,0.34431 0.343648,0.53485 0.367135,0.67309 0.550871,1.48876 0.550871,2.44739 0,0.93823 -0.183736,1.75392 -0.550871,2.4474 -0.367135,0.67308 -0.866845,1.1935 -1.499133,1.56063 -0.632289,0.36714 -1.346012,0.55035 -2.141471,0.55035 -0.79546,0 -1.509184,-0.18321 -2.141472,-0.55035 -0.632289,-0.36713 -1.142091,-0.88755 -1.529622,-1.56063 -0.367135,-0.69348 -0.550871,-1.50917 -0.550871,-2.4474 0,-0.95863 0.183736,-1.7743 0.550871,-2.44739 0.104996,-0.18236 0.220686,-0.3517 0.343648,-0.5116 v -4.64416 c 0,-0.19684 -0.151524,-0.30591 -0.33538,-0.23564 -0.350516,0.13397 -0.689887,0.28928 -1.018026,0.4656 -1.346163,0.71387 -2.417265,1.7133 -3.212724,2.99827 -0.775063,1.26458 -1.162202,2.72281 -1.162202,4.37492 0,1.63171 0.387139,3.08996 1.162202,4.37493 0.795459,1.26457 1.866561,2.264 3.212724,2.99827 1.352909,0.72693 2.895407,1.09447 4.628142,1.10174 z"
     style="fill:url(#linearGradient73);stroke-width:0.066;stroke-linecap:round;stroke-linejoin:round;paint-order:markers stroke fill"
     id="path11" /><path
     d="m 32.608346,110.31006 c -0.814586,0.009 -1.467094,0.5847 -1.467094,1.29863 v 8.39277 c 0,0.71966 0.663017,1.29915 1.486731,1.29915 0.823713,0 1.487247,-0.57949 1.487247,-1.29915 v -8.39277 c 0,-0.71393 -0.653026,-1.2895 -1.46761,-1.29863 z"
     style="fill:url(#linearGradient73);stroke-width:0.066;stroke-linecap:round;stroke-linejoin:round;paint-order:markers stroke fill"
     id="path10" /><path
     id="path42"
     clip-path="none"
     style="fill:url(#linearGradient80);stroke-width:0.0660001;stroke-linecap:round;stroke-linejoin:round;paint-order:markers stroke fill"
     d="M 81.728861 66.672933 L 69.471729 66.67345 C 68.669719 66.67345 68.024272 67.318897 68.024272 68.120907 L 68.024272 96.399284 C 68.024272 96.520654 68.039263 96.63868 68.067163 96.7512 A 301.9136 195.36404 0 0 0 65.246663 96.741899 A 301.9136 195.36404 0 0 0 53.244295 96.908813 A 301.9136 195.36404 0 0 0 52.285181 96.922766 L 52.285181 96.922249 A 301.9136 195.36404 0 0 0 9.0082357 100.16133 A 301.9136 195.36404 0 0 0 1.2412679 101.18297 A 0.68693603 8.3667795 84.843688 0 0 0.0051676432 101.6801 A 0.68693603 8.3667795 84.843688 0 0 4.0932902 101.88319 A 415.47244 232.26733 0 0 1 10.566797 101.37366 A 415.47244 232.26733 0 0 1 65.246663 99.353109 A 415.47244 232.26733 0 0 1 119.92653 101.37366 A 415.47244 232.26733 0 0 1 126.40004 101.88319 A 8.3667795 0.68693603 5.1563123 0 0 130.48816 101.6801 A 8.3667795 0.68693603 5.1563123 0 0 129.25206 101.18297 A 301.9136 195.36404 0 0 0 121.48509 100.16133 A 301.9136 195.36404 0 0 0 83.007336 97.080379 C 83.115346 96.877459 83.176835 96.645547 83.176835 96.398767 L 83.176835 68.12039 C 83.176835 67.31838 82.53087 66.672933 81.728861 66.672933 z M 52.285181 96.922249 A 301.9136 195.36404 0 0 1 53.244295 96.908813 A 301.9136 195.36404 0 0 1 64.763489 96.742415 L 64.763489 96.244771 C 64.763489 95.734371 64.352498 95.323381 63.842098 95.323381 L 62.376038 95.323381 A 0.67210199 0.67210199 0 0 1 61.709412 94.73892 L 61.445345 92.731807 L 67.204167 92.731807 L 67.204167 89.001803 L 46.477266 89.001803 C 46.19371 89.001803 45.965153 88.773239 45.965153 88.489689 L 45.965153 73.78206 C 45.965153 73.4985 46.19371 73.270463 46.477266 73.270463 L 67.204167 73.270463 L 67.204167 71.498995 L 46.067989 71.498995 C 45.159036 71.498995 44.427262 72.230772 44.427262 73.139722 L 44.427262 91.091081 C 44.427262 92.000031 45.159036 92.731807 46.067989 92.731807 L 55.602291 92.731807 L 55.338224 94.73892 A 0.67210199 0.67210199 0 0 1 54.671598 95.323381 L 53.205538 95.323381 C 52.695138 95.323381 52.284147 95.734371 52.284147 96.244771 L 52.284147 96.875741 C 52.284147 96.89128 52.28458 96.90691 52.285181 96.922249 z M 70.847355 69.423669 L 80.353752 69.423669 C 80.915162 69.423669 81.367126 69.875634 81.367126 70.437044 C 81.367126 70.998454 80.915162 71.450419 80.353752 71.450419 L 70.847355 71.450419 C 70.285945 71.450419 69.83398 70.998454 69.83398 70.437044 C 69.83398 69.875634 70.285945 69.423669 70.847355 69.423669 z M 70.847355 72.906661 L 80.353752 72.906661 C 80.915162 72.906661 81.367126 73.358626 81.367126 73.920036 C 81.367126 74.481446 80.915162 74.933411 80.353752 74.933411 L 70.847355 74.933411 C 70.285945 74.933411 69.83398 74.481446 69.83398 73.920036 C 69.83398 73.358626 70.285945 72.906661 70.847355 72.906661 z M 70.847355 76.389136 L 80.353752 76.389136 C 80.915162 76.389136 81.367126 76.841091 81.367126 77.402511 C 81.367126 77.963921 80.915162 78.415885 80.353752 78.415885 L 70.847355 78.415885 C 70.285945 78.415885 69.83398 77.963921 69.83398 77.402511 C 69.83398 76.841091 70.285945 76.389136 70.847355 76.389136 z M 75.600553 87.857686 A 1.8096052 1.8096052 0 0 1 77.410262 89.667395 A 1.8096052 1.8096052 0 0 1 75.600553 91.477104 A 1.8096052 1.8096052 0 0 1 73.790845 89.667395 A 1.8096052 1.8096052 0 0 1 75.600553 87.857686 z M 58.524076 89.87255 A 0.80225825 0.80225825 0 0 1 59.326095 90.674569 A 0.80225825 0.80225825 0 0 1 58.524076 91.477104 A 0.80225825 0.80225825 0 0 1 57.721541 90.674569 A 0.80225825 0.80225825 0 0 1 58.524076 89.87255 z M 70.847355 94.026302 L 80.353752 94.026302 C 80.915162 94.026302 81.367126 94.284785 81.367126 94.605595 C 81.367126 94.926405 80.915162 95.184888 80.353752 95.184888 L 70.847355 95.184888 C 70.285945 95.184888 69.83398 94.926405 69.83398 94.605595 C 69.83398 94.284785 70.285945 94.026302 70.847355 94.026302 z " /></svg>
