<?xml version="1.0" encoding="UTF-8" standalone="no"?>
<!-- Created with Inkscape (http://www.inkscape.org/) -->

<svg
   width="89.359299mm"
   height="84.775078mm"
   viewBox="0 0 89.359305 84.775078"
   version="1.1"
   id="svg1"
   xml:space="preserve"
   inkscape:version="1.4.2 (f4327f4, 2025-05-13)"
   sodipodi:docname="rabbit.svg"
   inkscape:export-filename="logo.webp"
   inkscape:export-xdpi="300"
   inkscape:export-ydpi="300"
   xmlns:inkscape="http://www.inkscape.org/namespaces/inkscape"
   xmlns:sodipodi="http://sodipodi.sourceforge.net/DTD/sodipodi-0.dtd"
   xmlns:xlink="http://www.w3.org/1999/xlink"
   xmlns="http://www.w3.org/2000/svg"
   xmlns:svg="http://www.w3.org/2000/svg"><sodipodi:namedview
     id="namedview1"
     pagecolor="#ffffff"
     bordercolor="#000000"
     borderopacity="0.25"
     inkscape:showpageshadow="2"
     inkscape:pageopacity="0.0"
     inkscape:pagecheckerboard="0"
     inkscape:deskcolor="#d1d1d1"
     inkscape:document-units="mm"
     inkscape:zoom="1.4142136"
     inkscape:cx="176.7767"
     inkscape:cy="153.08862"
     inkscape:window-width="1920"
     inkscape:window-height="1057"
     inkscape:window-x="-8"
     inkscape:window-y="-8"
     inkscape:window-maximized="1"
     showguides="false"
     inkscape:current-layer="svg1" /><defs
     id="defs1"><linearGradient
       inkscape:collect="always"
       id="linearGradient2318"><stop
         style="stop-color:#0a4c6d;stop-opacity:1;"
         offset="0"
         id="stop2318" /><stop
         style="stop-color:#1eabd6;stop-opacity:1;"
         offset="1"
         id="stop2319" /></linearGradient><inkscape:path-effect
       effect="fillet_chamfer"
       id="path-effect2305"
       is_visible="true"
       lpeversion="1"
       nodesatellites_param="F,0,0,1,0,0,0,1 @ F,0,0,1,0,1.5282053,0,1 @ F,0,0,1,0,0,0,1 @ F,0,0,1,0,0,0,1 @ F,0,0,1,0,0,0,1"
       radius="0"
       unit="px"
       method="auto"
       mode="F"
       chamfer_steps="1"
       flexible="false"
       use_knot_distance="true"
       apply_no_radius="true"
       apply_with_radius="true"
       only_selected="false"
       hide_knots="false" /><inkscape:path-effect
       effect="fillet_chamfer"
       id="path-effect2304"
       is_visible="true"
       lpeversion="1"
       nodesatellites_param="F,0,0,1,0,0,0,1 @ F,0,0,1,0,0.38811256,0,1 @ F,0,0,1,0,0.66940559,0,1 @ F,0,0,1,0,0,0,1"
       radius="0"
       unit="px"
       method="auto"
       mode="F"
       chamfer_steps="1"
       flexible="false"
       use_knot_distance="true"
       apply_no_radius="true"
       apply_with_radius="true"
       only_selected="false"
       hide_knots="false" /><inkscape:path-effect
       effect="fillet_chamfer"
       id="path-effect2272"
       is_visible="true"
       lpeversion="1"
       nodesatellites_param="F,0,0,1,0,0,0,1 @ F,0,0,1,0,0,0,1 @ F,0,1,1,0,0.78880588,0,1 @ F,0,0,1,0,0,0,1 @ F,0,0,1,0,0,0,1 @ F,0,0,1,0,0,0,1 @ F,0,0,1,0,0,0,1 @ F,0,0,1,0,0.78880588,0,1 @ F,0,0,1,0,0,0,1 @ F,0,0,1,0,0,0,1"
       radius="0"
       unit="px"
       method="auto"
       mode="F"
       chamfer_steps="1"
       flexible="false"
       use_knot_distance="true"
       apply_no_radius="true"
       apply_with_radius="true"
       only_selected="false"
       hide_knots="false" /><inkscape:path-effect
       effect="fillet_chamfer"
       id="path-effect2270"
       is_visible="true"
       lpeversion="1"
       nodesatellites_param="F,0,0,1,0,0,0,1 @ F,0,0,1,0,0,0,1 @ F,0,1,1,0,0.78880588,0,1 @ F,0,0,1,0,0,0,1 @ F,0,0,1,0,0,0,1 @ F,0,0,1,0,0,0,1 @ F,0,0,1,0,0,0,1 @ F,0,0,1,0,0.78880588,0,1 @ F,0,0,1,0,0,0,1 @ F,0,0,1,0,0,0,1"
       radius="0"
       unit="px"
       method="auto"
       mode="F"
       chamfer_steps="1"
       flexible="false"
       use_knot_distance="true"
       apply_no_radius="true"
       apply_with_radius="true"
       only_selected="false"
       hide_knots="false" /><linearGradient
       id="linearGradient72"
       inkscape:collect="always"><stop
         style="stop-color:#36a9cb;stop-opacity:1;"
         offset="0"
         id="stop72" /><stop
         style="stop-color:#1e87a7;stop-opacity:1;"
         offset="1"
         id="stop73" /></linearGradient><linearGradient
       id="linearGradient32"
       inkscape:collect="always"><stop
         style="stop-color:#0d77a6;stop-opacity:1;"
         offset="0"
         id="stop32" /><stop
         style="stop-color:#031d2e;stop-opacity:1;"
         offset="1"
         id="stop33" /></linearGradient><inkscape:path-effect
       effect="fillet_chamfer"
       id="path-effect29"
       is_visible="true"
       lpeversion="1"
       nodesatellites_param="F,0,1,1,0,0.35641157,0,1 @ F,0,0,1,0,0,0,1 @ F,0,0,1,0,0,0,1 @ F,0,0,1,0,0,0,1 @ F,0,0,1,0,0,0,1 @ F,0,0,1,0,0,0,1 @ F,0,0,1,0,0,0,1 @ F,0,0,1,0,0,0,1 @ F,0,0,1,0,0,0,1 @ F,0,0,1,0,0,0,1 @ F,0,0,1,0,0,0,1 @ F,0,0,1,0,0,0,1 @ F,0,0,1,0,0.35641157,0,1 @ F,0,0,1,0,0,0,1 @ F,0,0,1,0,0,0,1 @ F,0,0,1,0,0,0,1 @ F,0,0,1,0,0,0,1 @ F,0,0,1,0,0,0,1 @ F,0,0,1,0,0,0,1 @ F,0,0,1,0,0,0,1 @ F,0,0,1,0,0,0,1 @ F,0,0,1,0,0,0,1 @ F,0,0,1,0,0,0,1 @ F,0,0,1,0,0,0,1"
       radius="0"
       unit="px"
       method="auto"
       mode="F"
       chamfer_steps="1"
       flexible="false"
       use_knot_distance="true"
       apply_no_radius="true"
       apply_with_radius="true"
       only_selected="false"
       hide_knots="false" /><inkscape:path-effect
       effect="fillet_chamfer"
       id="path-effect19"
       is_visible="true"
       lpeversion="1"
       nodesatellites_param="F,0,0,1,0,0,0,1 @ F,0,0,1,0,0.58944423,0,1 @ F,0,0,1,0,0,0,1 @ F,0,0,1,0,0,0,1 @ F,0,0,1,0,0,0,1 @ F,0,0,1,0,0,0,1 @ F,0,0,1,0,0,0,1 @ F,0,0,1,0,0,0,1 @ F,0,0,1,0,0,0,1 @ F,0,0,1,0,0,0,1"
       radius="0"
       unit="px"
       method="auto"
       mode="F"
       chamfer_steps="1"
       flexible="false"
       use_knot_distance="true"
       apply_no_radius="true"
       apply_with_radius="true"
       only_selected="false"
       hide_knots="false" /><inkscape:path-effect
       effect="fillet_chamfer"
       id="path-effect17"
       is_visible="true"
       lpeversion="1"
       nodesatellites_param="F,0,0,1,0,0,0,1 @ F,0,0,1,0,0.58944423,0,1 @ F,0,0,1,0,0,0,1 @ F,0,0,1,0,0,0,1 @ F,0,0,1,0,0,0,1 @ F,0,0,1,0,0,0,1 @ F,0,0,1,0,0,0,1 @ F,0,0,1,0,0,0,1 @ F,0,0,1,0,0,0,1 @ F,0,0,1,0,0,0,1"
       radius="0"
       unit="px"
       method="auto"
       mode="F"
       chamfer_steps="1"
       flexible="false"
       use_knot_distance="true"
       apply_no_radius="true"
       apply_with_radius="true"
       only_selected="false"
       hide_knots="false" /><linearGradient
       inkscape:collect="always"
       xlink:href="#linearGradient32"
       id="linearGradient33"
       x1="112.62861"
       y1="113.30956"
       x2="112.62861"
       y2="240.39381"
       gradientUnits="userSpaceOnUse" /><linearGradient
       inkscape:collect="always"
       xlink:href="#linearGradient72"
       id="linearGradient73"
       x1="81.315163"
       y1="167.31235"
       x2="81.315163"
       y2="185.44919"
       gradientUnits="userSpaceOnUse"
       gradientTransform="translate(-48.68697,-56.283618)" /><linearGradient
       inkscape:collect="always"
       id="linearGradient2319"
       x1="91.258224"
       y1="134.43289"
       x2="125.14122"
       y2="54.609558"
       gradientUnits="userSpaceOnUse"
       xlink:href="#linearGradient2318" /><linearGradient
       inkscape:collect="always"
       xlink:href="#linearGradient32"
       id="linearGradient17"
       gradientUnits="userSpaceOnUse"
       x1="112.62861"
       y1="113.30956"
       x2="112.62861"
       y2="240.39381" /><linearGradient
       inkscape:collect="always"
       xlink:href="#linearGradient32"
       id="linearGradient18"
       gradientUnits="userSpaceOnUse"
       x1="112.62861"
       y1="113.30956"
       x2="112.62861"
       y2="240.39381" /><linearGradient
       inkscape:collect="always"
       xlink:href="#linearGradient32"
       id="linearGradient19"
       gradientUnits="userSpaceOnUse"
       x1="112.62861"
       y1="113.30956"
       x2="112.62861"
       y2="240.39381" /><linearGradient
       inkscape:collect="always"
       xlink:href="#linearGradient32"
       id="linearGradient20"
       gradientUnits="userSpaceOnUse"
       x1="112.62861"
       y1="113.30956"
       x2="112.62861"
       y2="240.39381" /><linearGradient
       inkscape:collect="always"
       xlink:href="#linearGradient32"
       id="linearGradient21"
       gradientUnits="userSpaceOnUse"
       x1="112.62861"
       y1="113.30956"
       x2="112.62861"
       y2="240.39381" /><linearGradient
       inkscape:collect="always"
       xlink:href="#linearGradient32"
       id="linearGradient22"
       gradientUnits="userSpaceOnUse"
       x1="112.62861"
       y1="113.30956"
       x2="112.62861"
       y2="240.39381" /><linearGradient
       inkscape:collect="always"
       xlink:href="#linearGradient72"
       id="linearGradient23"
       gradientUnits="userSpaceOnUse"
       gradientTransform="translate(-48.68697,-56.283618)"
       x1="81.315163"
       y1="167.31235"
       x2="81.315163"
       y2="185.44919" /><clipPath
       clipPathUnits="userSpaceOnUse"
       id="clipPath23"><path
         d="m 117.60579,56.284547 c -0.44471,0.02633 -0.61421,0.585617 -0.20257,2.483052 0.53422,2.462411 0.99138,3.742782 1.55287,5.054472 0.44463,1.038694 1.44385,3.689271 2.44482,5.473568 l -1.57769,-1.144117 c -0.0299,-0.02156 -0.0563,-0.04774 -0.078,-0.07751 -1.339,-0.770604 -2.75257,-1.636545 -4.10465,-2.238623 -3.22954,-1.43808 -6.17834,-2.055384 -7.5303,-2.222604 -1.41642,-0.175191 -1.11591,0.200765 0.69402,3.843177 2.87928,5.79447 8.77879,11.211603 18.14256,12.856062 -2.35491,3.648973 -1.14943,4.91991 -1.80609,6.131408 -0.30693,0.566264 -1.73497,1.655683 -2.41742,2.026232 -2.78641,1.512972 -8.2552,1.22569 -13.74025,1.152387 -4.98041,-0.06658 -10.213594,1.492663 -13.438973,2.864422 -1.065469,0.453141 -2.57728,1.00244 -4.800222,3.362071 -0.120994,-0.118322 -0.143639,-0.147249 -0.143663,-0.147278 l -0.652702,-0.6966 c -0.454459,-0.471125 -1.009899,-0.942433 -1.934249,-1.217494 -2.225099,-0.662122 -2.702973,-1.401074 -3.127973,-2.15284 -0.506971,0.585118 -0.764154,0.629692 -1.475365,1.994191 -0.216569,0.415504 -0.572543,0.715555 -0.811381,1.275831 -0.238838,0.560277 -0.381707,0.869207 -0.48518,1.671278 -0.320662,2.232409 0.270785,5.060478 4.774903,6.023918 -2.683377,6.04301 -2.164598,6.44806 -3.162599,9.90844 -1.025739,3.55654 -5.320903,1.65104 -6.528281,3.22978 -1.346732,1.76096 -3.137701,5.98429 -6.07715,9.02167 -3.956971,4.08874 -7.27768,6.29146 -6.001701,7.67602 0.31696,0.34392 2.370619,0.32149 2.946591,0.32349 2.20219,0.008 4.410328,-1.01997 7.500318,-4.35322 1.892781,-2.04179 3.140461,-3.93613 5.199681,-5.64255 1.020221,-0.84541 4.350494,-0.48879 6.964432,-0.48679 7.355415,0.005 10.969454,-0.97811 17.515724,-7.28173 0.52382,-0.5047 3.21648,-0.5176 6.61769,-0.5116 3.30608,0.006 4.69049,-0.50984 10.27689,-2.4014 2.51522,-0.85165 2.45482,0.70458 8.30699,1.15497 2.18891,0.16847 3.88501,0.76394 5.44514,2.11822 1.29113,1.12077 2.49988,2.95414 3.72536,3.77031 2.50606,1.66904 5.84167,1.65346 6.95358,0.46044 0.77614,-0.83275 -1.4926,-2.66681 -3.47834,-4.14239 -1.70628,-1.26792 -3.65606,-2.70661 -5.17488,-3.98012 -1.96098,-1.64425 -4.09884,-2.08824 -3.75688,-2.61792 0.18463,-0.28598 1.19346,0.0494 2.66082,0.16484 0.92058,0.0724 2.02263,0.0773 2.92799,0.52762 1.70919,0.85016 2.7459,2.78292 4.48138,3.82767 2.98194,1.79511 4.92321,1.60928 6.80216,1.29812 1.49259,-0.24717 -0.53135,-2.46166 -1.92184,-4.0535 -1.41713,-1.62232 -5.14956,-4.74901 -7.44761,-5.68854 -2.45201,-1.0025 -3.04313,-0.73333 -4.25865,-0.98082 2.2815,-2.75688 2.21042,-4.643064 2.63446,-9.242332 0.0103,-0.11217 1.82806,-0.506717 3.29851,-1.182357 2.5706,-1.181142 5.86065,-3.088777 5.54023,-8.249626 -0.0789,-1.270259 -0.44352,-0.400931 -3.92896,-3.743958 -3.4855,-3.343094 -4.94039,-6.095378 -11.65148,-6.053378 -2.3853,-10.598729 -10.0335,-16.695866 -14.29836,-18.656746 -0.53527,-0.246102 -1.04783,-0.548097 -1.39371,-0.527616 z m 7.28224,33.943665 h 5.3e-4 c 1.05705,-0.006 2.11364,0.290737 3.04788,0.869198 0.37014,0.229177 0.3223,0.609243 -0.0713,0.795817 l -3.29231,1.56011 c -0.39202,0.185761 -0.68625,0.491191 -0.86351,0.85163 -0.25087,0.510794 -0.26652,1.132422 0.005,1.683618 l 0.62322,1.261422 c 0.38237,0.774089 1.22936,1.194721 2.03088,1.039728 h 5.3e-4 c 0.17177,-0.03327 0.34126,-0.09304 0.50385,-0.181385 l 3.28714,-1.785419 c 0.38279,-0.207957 0.72447,-0.02291 0.70176,0.411861 -0.12039,2.310297 -1.52874,4.327188 -3.64939,5.116998 -0.70411,0.26225 -1.45565,0.37603 -2.21175,0.33486 -1.22902,-0.067 -2.38688,-0.53573 -3.33106,-1.29914 l -14.59136,8.06669 c 0.23149,2.59386 -1.19004,5.08346 -3.63492,5.99395 -1.62223,0.60418 -3.43079,0.3991 -4.9258,-0.52658 -0.370131,-0.22917 -0.322316,-0.60925 0.07131,-0.79582 l 3.29231,-1.56011 c 0.3179,-0.15064 0.5713,-0.37973 0.75034,-0.65319 0.35462,-0.54164 0.41712,-1.25733 0.10852,-1.88206 l -0.62322,-1.26142 c -0.33446,-0.67708 -1.02407,-1.08367 -1.72806,-1.07125 h -5.3e-4 c -0.27336,0.005 -0.549021,0.0729 -0.80667,0.21291 l -3.287138,1.78542 c -0.382802,0.20796 -0.724466,0.0234 -0.701765,-0.41135 0.120409,-2.3103 1.528728,-4.32771 3.64939,-5.11752 0.528079,-0.19668 1.083063,-0.31 1.646413,-0.33693 0.18779,-0.009 0.37632,-0.008 0.56534,0.002 1.27206,0.0693 2.46766,0.56946 3.42925,1.38079 l 14.50606,-8.019696 c -0.29096,-2.639777 1.13676,-5.197102 3.622,-6.122625 0.60818,-0.22651 1.24271,-0.338857 1.87689,-0.342614 z"
         style="opacity:0.5;fill:#ff0000;stroke-width:0.499996;stroke-linecap:round;stroke-linejoin:round;paint-order:markers stroke fill"
         id="path23"
         sodipodi:nodetypes="ssscccssccsccscccscszccsscscsscccssssssssccssssccscscsssssccccccccccsccccsccsccsscccscccccss" /></clipPath></defs><path
     id="rect2318"
     clip-path="url(#clipPath23)"
     style="fill:url(#linearGradient2319);stroke-width:0.7;stroke-linecap:round;stroke-linejoin:round;paint-order:markers stroke fill"
     d="m 64.84105,56.283513 v 76.475437 h 86.71719 V 56.283513 Z"
     transform="translate(-63.520043,-56.283559)"
     inkscape:export-filename="rabbit.svg"
     inkscape:export-xdpi="300"
     inkscape:export-ydpi="300"
     sodipodi:nodetypes="ccccc" /><script
     id="mesh_polyfill"
     type="text/javascript">
!function(){const t=&quot;http://www.w3.org/2000/svg&quot;,e=&quot;http://www.w3.org/1999/xlink&quot;,s=&quot;http://www.w3.org/1999/xhtml&quot;,r=2;if(document.createElementNS(t,&quot;meshgradient&quot;).x)return;const n=(t,e,s,r)=&gt;{let n=new x(.5*(e.x+s.x),.5*(e.y+s.y)),o=new x(.5*(t.x+e.x),.5*(t.y+e.y)),i=new x(.5*(s.x+r.x),.5*(s.y+r.y)),a=new x(.5*(n.x+o.x),.5*(n.y+o.y)),h=new x(.5*(n.x+i.x),.5*(n.y+i.y)),l=new x(.5*(a.x+h.x),.5*(a.y+h.y));return[[t,o,a,l],[l,h,i,r]]},o=t=&gt;{let e=t[0].distSquared(t[1]),s=t[2].distSquared(t[3]),r=.25*t[0].distSquared(t[2]),n=.25*t[1].distSquared(t[3]),o=e&gt;s?e:s,i=r&gt;n?r:n;return 18*(o&gt;i?o:i)},i=(t,e)=&gt;Math.sqrt(t.distSquared(e)),a=(t,e)=&gt;t.scale(2/3).add(e.scale(1/3)),h=t=&gt;{let e,s,r,n,o,i,a,h=new g;return t.match(/(\w+\(\s*[^)]+\))+/g).forEach(t=&gt;{let l=t.match(/[\w.-]+/g),d=l.shift();switch(d){case&quot;translate&quot;:2===l.length?e=new g(1,0,0,1,l[0],l[1]):(console.error(&quot;mesh.js: translate does not have 2 arguments!&quot;),e=new g(1,0,0,1,0,0)),h=h.append(e);break;case&quot;scale&quot;:1===l.length?s=new g(l[0],0,0,l[0],0,0):2===l.length?s=new g(l[0],0,0,l[1],0,0):(console.error(&quot;mesh.js: scale does not have 1 or 2 arguments!&quot;),s=new g(1,0,0,1,0,0)),h=h.append(s);break;case&quot;rotate&quot;:if(3===l.length&amp;&amp;(e=new g(1,0,0,1,l[1],l[2]),h=h.append(e)),l[0]){r=l[0]*Math.PI/180;let t=Math.cos(r),e=Math.sin(r);Math.abs(t)&lt;1e-16&amp;&amp;(t=0),Math.abs(e)&lt;1e-16&amp;&amp;(e=0),a=new g(t,e,-e,t,0,0),h=h.append(a)}else console.error(&quot;math.js: No argument to rotate transform!&quot;);3===l.length&amp;&amp;(e=new g(1,0,0,1,-l[1],-l[2]),h=h.append(e));break;case&quot;skewX&quot;:l[0]?(r=l[0]*Math.PI/180,n=Math.tan(r),o=new g(1,0,n,1,0,0),h=h.append(o)):console.error(&quot;math.js: No argument to skewX transform!&quot;);break;case&quot;skewY&quot;:l[0]?(r=l[0]*Math.PI/180,n=Math.tan(r),i=new g(1,n,0,1,0,0),h=h.append(i)):console.error(&quot;math.js: No argument to skewY transform!&quot;);break;case&quot;matrix&quot;:6===l.length?h=h.append(new g(...l)):console.error(&quot;math.js: Incorrect number of arguments for matrix!&quot;);break;default:console.error(&quot;mesh.js: Unhandled transform type: &quot;+d)}}),h},l=t=&gt;{let e=[],s=t.split(/[ ,]+/);for(let t=0,r=s.length-1;t&lt;r;t+=2)e.push(new x(parseFloat(s[t]),parseFloat(s[t+1])));return e},d=(t,e)=&gt;{for(let s in e)t.setAttribute(s,e[s])},c=(t,e,s,r,n)=&gt;{let o,i,a=[0,0,0,0];for(let h=0;h&lt;3;++h)e[h]&lt;t[h]&amp;&amp;e[h]&lt;s[h]||t[h]&lt;e[h]&amp;&amp;s[h]&lt;e[h]?a[h]=0:(a[h]=.5*((e[h]-t[h])/r+(s[h]-e[h])/n),o=Math.abs(3*(e[h]-t[h])/r),i=Math.abs(3*(s[h]-e[h])/n),a[h]&gt;o?a[h]=o:a[h]&gt;i&amp;&amp;(a[h]=i));return a},u=[[1,0,0,0,0,0,0,0,0,0,0,0,0,0,0,0],[0,0,0,0,1,0,0,0,0,0,0,0,0,0,0,0],[-3,3,0,0,-2,-1,0,0,0,0,0,0,0,0,0,0],[2,-2,0,0,1,1,0,0,0,0,0,0,0,0,0,0],[0,0,0,0,0,0,0,0,1,0,0,0,0,0,0,0],[0,0,0,0,0,0,0,0,0,0,0,0,1,0,0,0],[0,0,0,0,0,0,0,0,-3,3,0,0,-2,-1,0,0],[0,0,0,0,0,0,0,0,2,-2,0,0,1,1,0,0],[-3,0,3,0,0,0,0,0,-2,0,-1,0,0,0,0,0],[0,0,0,0,-3,0,3,0,0,0,0,0,-2,0,-1,0],[9,-9,-9,9,6,3,-6,-3,6,-6,3,-3,4,2,2,1],[-6,6,6,-6,-3,-3,3,3,-4,4,-2,2,-2,-2,-1,-1],[2,0,-2,0,0,0,0,0,1,0,1,0,0,0,0,0],[0,0,0,0,2,0,-2,0,0,0,0,0,1,0,1,0],[-6,6,6,-6,-4,-2,4,2,-3,3,-3,3,-2,-1,-2,-1],[4,-4,-4,4,2,2,-2,-2,2,-2,2,-2,1,1,1,1]],f=t=&gt;{let e=[];for(let s=0;s&lt;16;++s){e[s]=0;for(let r=0;r&lt;16;++r)e[s]+=u[s][r]*t[r]}return e},p=(t,e,s)=&gt;{const r=e*e,n=s*s,o=e*e*e,i=s*s*s;return t[0]+t[1]*e+t[2]*r+t[3]*o+t[4]*s+t[5]*s*e+t[6]*s*r+t[7]*s*o+t[8]*n+t[9]*n*e+t[10]*n*r+t[11]*n*o+t[12]*i+t[13]*i*e+t[14]*i*r+t[15]*i*o},y=t=&gt;{let e=[],s=[],r=[];for(let s=0;s&lt;4;++s)e[s]=[],e[s][0]=n(t[0][s],t[1][s],t[2][s],t[3][s]),e[s][1]=[],e[s][1].push(...n(...e[s][0][0])),e[s][1].push(...n(...e[s][0][1])),e[s][2]=[],e[s][2].push(...n(...e[s][1][0])),e[s][2].push(...n(...e[s][1][1])),e[s][2].push(...n(...e[s][1][2])),e[s][2].push(...n(...e[s][1][3]));for(let t=0;t&lt;8;++t){s[t]=[];for(let r=0;r&lt;4;++r)s[t][r]=[],s[t][r][0]=n(e[0][2][t][r],e[1][2][t][r],e[2][2][t][r],e[3][2][t][r]),s[t][r][1]=[],s[t][r][1].push(...n(...s[t][r][0][0])),s[t][r][1].push(...n(...s[t][r][0][1])),s[t][r][2]=[],s[t][r][2].push(...n(...s[t][r][1][0])),s[t][r][2].push(...n(...s[t][r][1][1])),s[t][r][2].push(...n(...s[t][r][1][2])),s[t][r][2].push(...n(...s[t][r][1][3]))}for(let t=0;t&lt;8;++t){r[t]=[];for(let e=0;e&lt;8;++e)r[t][e]=[],r[t][e][0]=s[t][0][2][e],r[t][e][1]=s[t][1][2][e],r[t][e][2]=s[t][2][2][e],r[t][e][3]=s[t][3][2][e]}return r};class x{constructor(t,e){this.x=t||0,this.y=e||0}toString(){return`(x=${this.x}, y=${this.y})`}clone(){return new x(this.x,this.y)}add(t){return new x(this.x+t.x,this.y+t.y)}scale(t){return void 0===t.x?new x(this.x*t,this.y*t):new x(this.x*t.x,this.y*t.y)}distSquared(t){let e=this.x-t.x,s=this.y-t.y;return e*e+s*s}transform(t){let e=this.x*t.a+this.y*t.c+t.e,s=this.x*t.b+this.y*t.d+t.f;return new x(e,s)}}class g{constructor(t,e,s,r,n,o){void 0===t?(this.a=1,this.b=0,this.c=0,this.d=1,this.e=0,this.f=0):(this.a=t,this.b=e,this.c=s,this.d=r,this.e=n,this.f=o)}toString(){return`affine: ${this.a} ${this.c} ${this.e} \n       ${this.b} ${this.d} ${this.f}`}append(t){t instanceof g||console.error(&quot;mesh.js: argument to Affine.append is not affine!&quot;);let e=this.a*t.a+this.c*t.b,s=this.b*t.a+this.d*t.b,r=this.a*t.c+this.c*t.d,n=this.b*t.c+this.d*t.d,o=this.a*t.e+this.c*t.f+this.e,i=this.b*t.e+this.d*t.f+this.f;return new g(e,s,r,n,o,i)}}class w{constructor(t,e){this.nodes=t,this.colors=e}paintCurve(t,e){if(o(this.nodes)&gt;r){const s=n(...this.nodes);let r=[[],[]],o=[[],[]];for(let t=0;t&lt;4;++t)r[0][t]=this.colors[0][t],r[1][t]=(this.colors[0][t]+this.colors[1][t])/2,o[0][t]=r[1][t],o[1][t]=this.colors[1][t];let i=new w(s[0],r),a=new w(s[1],o);i.paintCurve(t,e),a.paintCurve(t,e)}else{let s=Math.round(this.nodes[0].x);if(s&gt;=0&amp;&amp;s&lt;e){let r=4*(~~this.nodes[0].y*e+s);t[r]=Math.round(this.colors[0][0]),t[r+1]=Math.round(this.colors[0][1]),t[r+2]=Math.round(this.colors[0][2]),t[r+3]=Math.round(this.colors[0][3])}}}}class m{constructor(t,e){this.nodes=t,this.colors=e}split(){let t=[[],[],[],[]],e=[[],[],[],[]],s=[[[],[]],[[],[]]],r=[[[],[]],[[],[]]];for(let s=0;s&lt;4;++s){const r=n(this.nodes[0][s],this.nodes[1][s],this.nodes[2][s],this.nodes[3][s]);t[0][s]=r[0][0],t[1][s]=r[0][1],t[2][s]=r[0][2],t[3][s]=r[0][3],e[0][s]=r[1][0],e[1][s]=r[1][1],e[2][s]=r[1][2],e[3][s]=r[1][3]}for(let t=0;t&lt;4;++t)s[0][0][t]=this.colors[0][0][t],s[0][1][t]=this.colors[0][1][t],s[1][0][t]=(this.colors[0][0][t]+this.colors[1][0][t])/2,s[1][1][t]=(this.colors[0][1][t]+this.colors[1][1][t])/2,r[0][0][t]=s[1][0][t],r[0][1][t]=s[1][1][t],r[1][0][t]=this.colors[1][0][t],r[1][1][t]=this.colors[1][1][t];return[new m(t,s),new m(e,r)]}paint(t,e){let s,n=!1;for(let t=0;t&lt;4;++t)if((s=o([this.nodes[0][t],this.nodes[1][t],this.nodes[2][t],this.nodes[3][t]]))&gt;r){n=!0;break}if(n){let s=this.split();s[0].paint(t,e),s[1].paint(t,e)}else{new w([...this.nodes[0]],[...this.colors[0]]).paintCurve(t,e)}}}class b{constructor(t){this.readMesh(t),this.type=t.getAttribute(&quot;type&quot;)||&quot;bilinear&quot;}readMesh(t){let e=[[]],s=[[]],r=Number(t.getAttribute(&quot;x&quot;)),n=Number(t.getAttribute(&quot;y&quot;));e[0][0]=new x(r,n);let o=t.children;for(let t=0,r=o.length;t&lt;r;++t){e[3*t+1]=[],e[3*t+2]=[],e[3*t+3]=[],s[t+1]=[];let r=o[t].children;for(let n=0,o=r.length;n&lt;o;++n){let o=r[n].children;for(let r=0,i=o.length;r&lt;i;++r){let i=r;0!==t&amp;&amp;++i;let h,d=o[r].getAttribute(&quot;path&quot;),c=&quot;l&quot;;null!=d&amp;&amp;(c=(h=d.match(/\s*([lLcC])\s*(.*)/))[1]);let u=l(h[2]);switch(c){case&quot;l&quot;:0===i?(e[3*t][3*n+3]=u[0].add(e[3*t][3*n]),e[3*t][3*n+1]=a(e[3*t][3*n],e[3*t][3*n+3]),e[3*t][3*n+2]=a(e[3*t][3*n+3],e[3*t][3*n])):1===i?(e[3*t+3][3*n+3]=u[0].add(e[3*t][3*n+3]),e[3*t+1][3*n+3]=a(e[3*t][3*n+3],e[3*t+3][3*n+3]),e[3*t+2][3*n+3]=a(e[3*t+3][3*n+3],e[3*t][3*n+3])):2===i?(0===n&amp;&amp;(e[3*t+3][3*n+0]=u[0].add(e[3*t+3][3*n+3])),e[3*t+3][3*n+1]=a(e[3*t+3][3*n],e[3*t+3][3*n+3]),e[3*t+3][3*n+2]=a(e[3*t+3][3*n+3],e[3*t+3][3*n])):(e[3*t+1][3*n]=a(e[3*t][3*n],e[3*t+3][3*n]),e[3*t+2][3*n]=a(e[3*t+3][3*n],e[3*t][3*n]));break;case&quot;L&quot;:0===i?(e[3*t][3*n+3]=u[0],e[3*t][3*n+1]=a(e[3*t][3*n],e[3*t][3*n+3]),e[3*t][3*n+2]=a(e[3*t][3*n+3],e[3*t][3*n])):1===i?(e[3*t+3][3*n+3]=u[0],e[3*t+1][3*n+3]=a(e[3*t][3*n+3],e[3*t+3][3*n+3]),e[3*t+2][3*n+3]=a(e[3*t+3][3*n+3],e[3*t][3*n+3])):2===i?(0===n&amp;&amp;(e[3*t+3][3*n+0]=u[0]),e[3*t+3][3*n+1]=a(e[3*t+3][3*n],e[3*t+3][3*n+3]),e[3*t+3][3*n+2]=a(e[3*t+3][3*n+3],e[3*t+3][3*n])):(e[3*t+1][3*n]=a(e[3*t][3*n],e[3*t+3][3*n]),e[3*t+2][3*n]=a(e[3*t+3][3*n],e[3*t][3*n]));break;case&quot;c&quot;:0===i?(e[3*t][3*n+1]=u[0].add(e[3*t][3*n]),e[3*t][3*n+2]=u[1].add(e[3*t][3*n]),e[3*t][3*n+3]=u[2].add(e[3*t][3*n])):1===i?(e[3*t+1][3*n+3]=u[0].add(e[3*t][3*n+3]),e[3*t+2][3*n+3]=u[1].add(e[3*t][3*n+3]),e[3*t+3][3*n+3]=u[2].add(e[3*t][3*n+3])):2===i?(e[3*t+3][3*n+2]=u[0].add(e[3*t+3][3*n+3]),e[3*t+3][3*n+1]=u[1].add(e[3*t+3][3*n+3]),0===n&amp;&amp;(e[3*t+3][3*n+0]=u[2].add(e[3*t+3][3*n+3]))):(e[3*t+2][3*n]=u[0].add(e[3*t+3][3*n]),e[3*t+1][3*n]=u[1].add(e[3*t+3][3*n]));break;case&quot;C&quot;:0===i?(e[3*t][3*n+1]=u[0],e[3*t][3*n+2]=u[1],e[3*t][3*n+3]=u[2]):1===i?(e[3*t+1][3*n+3]=u[0],e[3*t+2][3*n+3]=u[1],e[3*t+3][3*n+3]=u[2]):2===i?(e[3*t+3][3*n+2]=u[0],e[3*t+3][3*n+1]=u[1],0===n&amp;&amp;(e[3*t+3][3*n+0]=u[2])):(e[3*t+2][3*n]=u[0],e[3*t+1][3*n]=u[1]);break;default:console.error(&quot;mesh.js: &quot;+c+&quot; invalid path type.&quot;)}if(0===t&amp;&amp;0===n||r&gt;0){let e=window.getComputedStyle(o[r]).stopColor.match(/^rgb\s*\(\s*(\d+)\s*,\s*(\d+)\s*,\s*(\d+)\s*\)$/i),a=window.getComputedStyle(o[r]).stopOpacity,h=255;a&amp;&amp;(h=Math.floor(255*a)),e&amp;&amp;(0===i?(s[t][n]=[],s[t][n][0]=Math.floor(e[1]),s[t][n][1]=Math.floor(e[2]),s[t][n][2]=Math.floor(e[3]),s[t][n][3]=h):1===i?(s[t][n+1]=[],s[t][n+1][0]=Math.floor(e[1]),s[t][n+1][1]=Math.floor(e[2]),s[t][n+1][2]=Math.floor(e[3]),s[t][n+1][3]=h):2===i?(s[t+1][n+1]=[],s[t+1][n+1][0]=Math.floor(e[1]),s[t+1][n+1][1]=Math.floor(e[2]),s[t+1][n+1][2]=Math.floor(e[3]),s[t+1][n+1][3]=h):3===i&amp;&amp;(s[t+1][n]=[],s[t+1][n][0]=Math.floor(e[1]),s[t+1][n][1]=Math.floor(e[2]),s[t+1][n][2]=Math.floor(e[3]),s[t+1][n][3]=h))}}e[3*t+1][3*n+1]=new x,e[3*t+1][3*n+2]=new x,e[3*t+2][3*n+1]=new x,e[3*t+2][3*n+2]=new x,e[3*t+1][3*n+1].x=(-4*e[3*t][3*n].x+6*(e[3*t][3*n+1].x+e[3*t+1][3*n].x)+-2*(e[3*t][3*n+3].x+e[3*t+3][3*n].x)+3*(e[3*t+3][3*n+1].x+e[3*t+1][3*n+3].x)+-1*e[3*t+3][3*n+3].x)/9,e[3*t+1][3*n+2].x=(-4*e[3*t][3*n+3].x+6*(e[3*t][3*n+2].x+e[3*t+1][3*n+3].x)+-2*(e[3*t][3*n].x+e[3*t+3][3*n+3].x)+3*(e[3*t+3][3*n+2].x+e[3*t+1][3*n].x)+-1*e[3*t+3][3*n].x)/9,e[3*t+2][3*n+1].x=(-4*e[3*t+3][3*n].x+6*(e[3*t+3][3*n+1].x+e[3*t+2][3*n].x)+-2*(e[3*t+3][3*n+3].x+e[3*t][3*n].x)+3*(e[3*t][3*n+1].x+e[3*t+2][3*n+3].x)+-1*e[3*t][3*n+3].x)/9,e[3*t+2][3*n+2].x=(-4*e[3*t+3][3*n+3].x+6*(e[3*t+3][3*n+2].x+e[3*t+2][3*n+3].x)+-2*(e[3*t+3][3*n].x+e[3*t][3*n+3].x)+3*(e[3*t][3*n+2].x+e[3*t+2][3*n].x)+-1*e[3*t][3*n].x)/9,e[3*t+1][3*n+1].y=(-4*e[3*t][3*n].y+6*(e[3*t][3*n+1].y+e[3*t+1][3*n].y)+-2*(e[3*t][3*n+3].y+e[3*t+3][3*n].y)+3*(e[3*t+3][3*n+1].y+e[3*t+1][3*n+3].y)+-1*e[3*t+3][3*n+3].y)/9,e[3*t+1][3*n+2].y=(-4*e[3*t][3*n+3].y+6*(e[3*t][3*n+2].y+e[3*t+1][3*n+3].y)+-2*(e[3*t][3*n].y+e[3*t+3][3*n+3].y)+3*(e[3*t+3][3*n+2].y+e[3*t+1][3*n].y)+-1*e[3*t+3][3*n].y)/9,e[3*t+2][3*n+1].y=(-4*e[3*t+3][3*n].y+6*(e[3*t+3][3*n+1].y+e[3*t+2][3*n].y)+-2*(e[3*t+3][3*n+3].y+e[3*t][3*n].y)+3*(e[3*t][3*n+1].y+e[3*t+2][3*n+3].y)+-1*e[3*t][3*n+3].y)/9,e[3*t+2][3*n+2].y=(-4*e[3*t+3][3*n+3].y+6*(e[3*t+3][3*n+2].y+e[3*t+2][3*n+3].y)+-2*(e[3*t+3][3*n].y+e[3*t][3*n+3].y)+3*(e[3*t][3*n+2].y+e[3*t+2][3*n].y)+-1*e[3*t][3*n].y)/9}}this.nodes=e,this.colors=s}paintMesh(t,e){let s=(this.nodes.length-1)/3,r=(this.nodes[0].length-1)/3;if(&quot;bilinear&quot;===this.type||s&lt;2||r&lt;2){let n;for(let o=0;o&lt;s;++o)for(let s=0;s&lt;r;++s){let r=[];for(let t=3*o,e=3*o+4;t&lt;e;++t)r.push(this.nodes[t].slice(3*s,3*s+4));let i=[];i.push(this.colors[o].slice(s,s+2)),i.push(this.colors[o+1].slice(s,s+2)),(n=new m(r,i)).paint(t,e)}}else{let n,o,a,h,l,d,u;const x=s,g=r;s++,r++;let w=new Array(s);for(let t=0;t&lt;s;++t){w[t]=new Array(r);for(let e=0;e&lt;r;++e)w[t][e]=[],w[t][e][0]=this.nodes[3*t][3*e],w[t][e][1]=this.colors[t][e]}for(let t=0;t&lt;s;++t)for(let e=0;e&lt;r;++e)0!==t&amp;&amp;t!==x&amp;&amp;(n=i(w[t-1][e][0],w[t][e][0]),o=i(w[t+1][e][0],w[t][e][0]),w[t][e][2]=c(w[t-1][e][1],w[t][e][1],w[t+1][e][1],n,o)),0!==e&amp;&amp;e!==g&amp;&amp;(n=i(w[t][e-1][0],w[t][e][0]),o=i(w[t][e+1][0],w[t][e][0]),w[t][e][3]=c(w[t][e-1][1],w[t][e][1],w[t][e+1][1],n,o));for(let t=0;t&lt;r;++t){w[0][t][2]=[],w[x][t][2]=[];for(let e=0;e&lt;4;++e)n=i(w[1][t][0],w[0][t][0]),o=i(w[x][t][0],w[x-1][t][0]),w[0][t][2][e]=n&gt;0?2*(w[1][t][1][e]-w[0][t][1][e])/n-w[1][t][2][e]:0,w[x][t][2][e]=o&gt;0?2*(w[x][t][1][e]-w[x-1][t][1][e])/o-w[x-1][t][2][e]:0}for(let t=0;t&lt;s;++t){w[t][0][3]=[],w[t][g][3]=[];for(let e=0;e&lt;4;++e)n=i(w[t][1][0],w[t][0][0]),o=i(w[t][g][0],w[t][g-1][0]),w[t][0][3][e]=n&gt;0?2*(w[t][1][1][e]-w[t][0][1][e])/n-w[t][1][3][e]:0,w[t][g][3][e]=o&gt;0?2*(w[t][g][1][e]-w[t][g-1][1][e])/o-w[t][g-1][3][e]:0}for(let s=0;s&lt;x;++s)for(let r=0;r&lt;g;++r){let n=i(w[s][r][0],w[s+1][r][0]),o=i(w[s][r+1][0],w[s+1][r+1][0]),c=i(w[s][r][0],w[s][r+1][0]),x=i(w[s+1][r][0],w[s+1][r+1][0]),g=[[],[],[],[]];for(let t=0;t&lt;4;++t){(d=[])[0]=w[s][r][1][t],d[1]=w[s+1][r][1][t],d[2]=w[s][r+1][1][t],d[3]=w[s+1][r+1][1][t],d[4]=w[s][r][2][t]*n,d[5]=w[s+1][r][2][t]*n,d[6]=w[s][r+1][2][t]*o,d[7]=w[s+1][r+1][2][t]*o,d[8]=w[s][r][3][t]*c,d[9]=w[s+1][r][3][t]*x,d[10]=w[s][r+1][3][t]*c,d[11]=w[s+1][r+1][3][t]*x,d[12]=0,d[13]=0,d[14]=0,d[15]=0,u=f(d);for(let e=0;e&lt;9;++e){g[t][e]=[];for(let s=0;s&lt;9;++s)g[t][e][s]=p(u,e/8,s/8),g[t][e][s]&gt;255?g[t][e][s]=255:g[t][e][s]&lt;0&amp;&amp;(g[t][e][s]=0)}}h=[];for(let t=3*s,e=3*s+4;t&lt;e;++t)h.push(this.nodes[t].slice(3*r,3*r+4));l=y(h);for(let s=0;s&lt;8;++s)for(let r=0;r&lt;8;++r)(a=new m(l[s][r],[[[g[0][s][r],g[1][s][r],g[2][s][r],g[3][s][r]],[g[0][s][r+1],g[1][s][r+1],g[2][s][r+1],g[3][s][r+1]]],[[g[0][s+1][r],g[1][s+1][r],g[2][s+1][r],g[3][s+1][r]],[g[0][s+1][r+1],g[1][s+1][r+1],g[2][s+1][r+1],g[3][s+1][r+1]]]])).paint(t,e)}}}transform(t){if(t instanceof x)for(let e=0,s=this.nodes.length;e&lt;s;++e)for(let s=0,r=this.nodes[0].length;s&lt;r;++s)this.nodes[e][s]=this.nodes[e][s].add(t);else if(t instanceof g)for(let e=0,s=this.nodes.length;e&lt;s;++e)for(let s=0,r=this.nodes[0].length;s&lt;r;++s)this.nodes[e][s]=this.nodes[e][s].transform(t)}scale(t){for(let e=0,s=this.nodes.length;e&lt;s;++e)for(let s=0,r=this.nodes[0].length;s&lt;r;++s)this.nodes[e][s]=this.nodes[e][s].scale(t)}}document.querySelectorAll(&quot;rect,circle,ellipse,path,text&quot;).forEach((r,n)=&gt;{let o=r.getAttribute(&quot;id&quot;);o||(o=&quot;patchjs_shape&quot;+n,r.setAttribute(&quot;id&quot;,o));const i=r.style.fill.match(/^url\(\s*&quot;?\s*#([^\s&quot;]+)&quot;?\s*\)/),a=r.style.stroke.match(/^url\(\s*&quot;?\s*#([^\s&quot;]+)&quot;?\s*\)/);if(i&amp;&amp;i[1]){const a=document.getElementById(i[1]);if(a&amp;&amp;&quot;meshgradient&quot;===a.nodeName){const i=r.getBBox();let l=document.createElementNS(s,&quot;canvas&quot;);d(l,{width:i.width,height:i.height});const c=l.getContext(&quot;2d&quot;);let u=c.createImageData(i.width,i.height);const f=new b(a);&quot;objectBoundingBox&quot;===a.getAttribute(&quot;gradientUnits&quot;)&amp;&amp;f.scale(new x(i.width,i.height));const p=a.getAttribute(&quot;gradientTransform&quot;);null!=p&amp;&amp;f.transform(h(p)),&quot;userSpaceOnUse&quot;===a.getAttribute(&quot;gradientUnits&quot;)&amp;&amp;f.transform(new x(-i.x,-i.y)),f.paintMesh(u.data,l.width),c.putImageData(u,0,0);const y=document.createElementNS(t,&quot;image&quot;);d(y,{width:i.width,height:i.height,x:i.x,y:i.y});let g=l.toDataURL();y.setAttributeNS(e,&quot;xlink:href&quot;,g),r.parentNode.insertBefore(y,r),r.style.fill=&quot;none&quot;;const w=document.createElementNS(t,&quot;use&quot;);w.setAttributeNS(e,&quot;xlink:href&quot;,&quot;#&quot;+o);const m=&quot;patchjs_clip&quot;+n,M=document.createElementNS(t,&quot;clipPath&quot;);M.setAttribute(&quot;id&quot;,m),M.appendChild(w),r.parentElement.insertBefore(M,r),y.setAttribute(&quot;clip-path&quot;,&quot;url(#&quot;+m+&quot;)&quot;),u=null,l=null,g=null}}if(a&amp;&amp;a[1]){const o=document.getElementById(a[1]);if(o&amp;&amp;&quot;meshgradient&quot;===o.nodeName){const i=parseFloat(r.style.strokeWidth.slice(0,-2))*(parseFloat(r.style.strokeMiterlimit)||parseFloat(r.getAttribute(&quot;stroke-miterlimit&quot;))||1),a=r.getBBox(),l=Math.trunc(a.width+i),c=Math.trunc(a.height+i),u=Math.trunc(a.x-i/2),f=Math.trunc(a.y-i/2);let p=document.createElementNS(s,&quot;canvas&quot;);d(p,{width:l,height:c});const y=p.getContext(&quot;2d&quot;);let g=y.createImageData(l,c);const w=new b(o);&quot;objectBoundingBox&quot;===o.getAttribute(&quot;gradientUnits&quot;)&amp;&amp;w.scale(new x(l,c));const m=o.getAttribute(&quot;gradientTransform&quot;);null!=m&amp;&amp;w.transform(h(m)),&quot;userSpaceOnUse&quot;===o.getAttribute(&quot;gradientUnits&quot;)&amp;&amp;w.transform(new x(-u,-f)),w.paintMesh(g.data,p.width),y.putImageData(g,0,0);const M=document.createElementNS(t,&quot;image&quot;);d(M,{width:l,height:c,x:0,y:0});let S=p.toDataURL();M.setAttributeNS(e,&quot;xlink:href&quot;,S);const k=&quot;pattern_clip&quot;+n,A=document.createElementNS(t,&quot;pattern&quot;);d(A,{id:k,patternUnits:&quot;userSpaceOnUse&quot;,width:l,height:c,x:u,y:f}),A.appendChild(M),o.parentNode.appendChild(A),r.style.stroke=&quot;url(#&quot;+k+&quot;)&quot;,g=null,p=null,S=null}}})}();
</script><g
     id="g17"
     transform="matrix(0.70309808,0,0,0.70309808,-1.1982823,-10.547208)"
     style="stroke-width:1.42228"><path
       id="path27"
       clip-path="none"
       style="fill:url(#linearGradient17);stroke-width:0.0938703;stroke-linecap:round;stroke-linejoin:round;paint-order:markers stroke fill"
       d="m 168.36271,169.24096 c -1.4185,0.0915 -2.80939,0.42002 -4.07624,1.10071 -1.46113,0.74809 -2.56536,2.23887 -2.60966,3.91087 -0.10293,1.34412 0.31251,2.79394 1.42834,3.63027 1.77045,1.36571 4.09738,1.42265 6.20996,1.80247 0.78119,0.15174 1.75889,0.24908 2.2195,0.9803 0.35398,0.85158 -0.47777,1.61948 -1.26866,1.73685 -2.52898,0.45303 -5.21003,-0.11759 -7.40368,-1.43557 -0.53031,1.1422 -1.06081,2.28395 -1.59112,3.42615 2.11073,1.33017 4.66975,1.75056 7.12877,1.77456 1.75002,0.002 3.54846,-0.24859 5.10666,-1.09037 1.48918,-0.7413 2.6408,-2.24702 2.6603,-3.95118 0.001,-0.018 0.002,-0.0358 0.004,-0.0537 0.0121,-0.18566 0.012,-0.37224 0,-0.55811 -0.0772,-1.19383 -0.64774,-2.35602 -1.6676,-3.02152 -1.88878,-1.31259 -4.26576,-1.26432 -6.427,-1.75028 -0.7044,-0.19071 -1.72521,-0.36267 -1.84019,-1.2361 -0.11337,-0.93611 0.8849,-1.46142 1.67431,-1.57045 2.08012,-0.2996 4.29522,0.05 6.11901,1.11622 0.53031,-1.132 1.06081,-2.26366 1.59112,-3.39566 -0.92333,-0.55532 -1.96525,-0.87875 -3.01532,-1.09348 -1.37732,-0.26784 -2.82362,-0.41345 -4.24212,-0.32194 z"
       inkscape:export-filename="name.svg"
       inkscape:export-xdpi="300"
       inkscape:export-ydpi="300"
       transform="translate(-47.38198,-56.283513)" /><path
       id="path21"
       clip-path="none"
       style="fill:url(#linearGradient18);stroke-width:0.0938703;stroke-linecap:round;stroke-linejoin:round;paint-order:markers stroke fill"
       d="m 143.37922,163.22169 v 22.70146 h 4.77284 v -4.17959 c 0.76492,-0.75897 1.52576,-1.52218 2.31045,-2.2593 1.72835,2.1462 3.45686,4.2927 5.18521,6.43889 h 5.78208 c -2.49391,-3.16991 -4.98781,-6.34011 -7.48171,-9.51002 2.33861,-2.26599 4.56161,-4.65235 6.86986,-6.94996 h -5.69061 c -2.32519,2.20477 -4.65009,4.4093 -6.97528,6.61406 v -12.85554 z"
       transform="translate(-47.38198,-56.283513)" /><path
       id="path20"
       clip-path="none"
       style="fill:url(#linearGradient19);stroke-width:0.0938703;stroke-linecap:round;stroke-linejoin:round;paint-order:markers stroke fill"
       d="m 136.43959,161.84503 c -0.80528,0.0134 -1.6241,0.30571 -2.17247,0.91157 -0.7492,0.76909 -0.88316,2.02642 -0.38706,2.96468 0.43904,0.81906 1.32121,1.34698 2.23862,1.42472 0.90711,0.0954 1.90767,-0.083 2.57969,-0.74259 0.59084,-0.54535 0.87796,-1.36734 0.82062,-2.16266 -0.0248,-0.68618 -0.37945,-1.33842 -0.92604,-1.75028 -0.55435,-0.45261 -1.27619,-0.64081 -1.98231,-0.64544 z"
       transform="translate(-47.38198,-56.283513)" /><path
       id="path19"
       clip-path="none"
       style="fill:url(#linearGradient20);stroke-width:0.0938703;stroke-linecap:round;stroke-linejoin:round;paint-order:markers stroke fill"
       d="m 134.16996,169.46317 v 16.45998 h 4.77284 v -16.45998 z"
       transform="translate(-47.38198,-56.283513)" /><path
       id="path18"
       clip-path="none"
       style="fill:url(#linearGradient21);stroke-width:0.0938703;stroke-linecap:round;stroke-linejoin:round;paint-order:markers stroke fill"
       d="m 114.95667,164.50688 v 21.41627 h 4.95628 v -7.8016 h 9.91258 v -3.97753 h -9.91258 v -5.66012 h 11.22826 v -3.97702 z"
       transform="translate(-47.38198,-56.283513)" /><path
       id="path16"
       clip-path="none"
       style="fill:url(#linearGradient22);stroke-width:0.0938703;stroke-linecap:round;stroke-linejoin:round;paint-order:markers stroke fill"
       d="m 103.23904,169.21822 c -1.90922,-0.0319 -3.937781,0.62383 -5.170748,2.14561 v -1.90066 h -4.558378 v 22.39501 h 4.772835 v -7.68893 c 2.523891,2.69364 7.067041,2.52862 9.916191,0.45113 4.468,-3.25794 4.33753,-10.99384 -0.30127,-14.0317 -1.36775,-0.91177 -3.01528,-1.39511 -4.65863,-1.37046 z m -0.82631,3.91604 c 2.45689,-0.12876 4.41769,2.32044 4.21111,4.68085 0.0334,2.24171 -1.74674,4.5007 -4.09949,4.45244 -2.06665,0.0833 -4.042556,-1.52099 -4.2354,-3.61166 -0.475921,-2.26157 0.769013,-5.03245 3.21841,-5.43533 0.29764,-0.0603 0.6017,-0.0892 0.90537,-0.0863 z"
       transform="translate(-47.38198,-56.283513)" /><path
       id="rect31"
       clip-path="none"
       style="fill:url(#linearGradient33);stroke-width:0.0938703;stroke-linecap:round;stroke-linejoin:round;paint-order:markers stroke fill"
       d="m 49.086269,164.50688 v 21.41627 h 4.956286 v -8.78086 l 9.729122,-4.19148 v 12.97234 h 4.956287 v -21.41627 h -4.956287 v 8.44393 l -9.729122,4.19148 0,-12.63541 z"
       transform="translate(-47.38198,-56.283513)"
       sodipodi:nodetypes="ccccccccccccc" /><path
       d="m 32.695162,129.88458 c 1.712745,-0.007 3.245777,-0.37481 4.598686,-1.10174 1.366559,-0.73427 2.43766,-1.7337 3.212723,-2.99827 0.775063,-1.28497 1.162203,-2.74322 1.162203,-4.37493 0,-1.67251 -0.38714,-3.14084 -1.162203,-4.40541 -0.775063,-1.26458 -1.846164,-2.25391 -3.212723,-2.96778 -0.328729,-0.17664 -0.668022,-0.33198 -1.018026,-0.46612 -0.183793,-0.0704 -0.33538,0.0383 -0.33538,0.23513 v 4.62194 c 0.125182,0.16603 0.239716,0.34431 0.343648,0.53485 0.367135,0.67309 0.550871,1.48876 0.550871,2.44739 0,0.93823 -0.183736,1.75392 -0.550871,2.4474 -0.367135,0.67308 -0.866845,1.1935 -1.499133,1.56063 -0.632289,0.36714 -1.346012,0.55035 -2.141471,0.55035 -0.79546,0 -1.509184,-0.18321 -2.141472,-0.55035 -0.632289,-0.36713 -1.142091,-0.88755 -1.529622,-1.56063 -0.367135,-0.69348 -0.550871,-1.50917 -0.550871,-2.4474 0,-0.95863 0.183736,-1.7743 0.550871,-2.44739 0.104996,-0.18236 0.220686,-0.3517 0.343648,-0.5116 v -4.64416 c 0,-0.19684 -0.151524,-0.30591 -0.33538,-0.23564 -0.350516,0.13397 -0.689887,0.28928 -1.018026,0.4656 -1.346163,0.71387 -2.417265,1.7133 -3.212724,2.99827 -0.775063,1.26458 -1.162202,2.72281 -1.162202,4.37492 0,1.63171 0.387139,3.08996 1.162202,4.37493 0.795459,1.26457 1.866561,2.264 3.212724,2.99827 1.352909,0.72693 2.895407,1.09447 4.628142,1.10174 z"
       style="fill:url(#linearGradient23);stroke-width:0.0938703;stroke-linecap:round;stroke-linejoin:round;paint-order:markers stroke fill"
       id="path11" /><path
       d="m 32.608346,110.31006 c -0.814586,0.009 -1.467094,0.5847 -1.467094,1.29863 v 8.39277 c 0,0.71966 0.663017,1.29915 1.486731,1.29915 0.823713,0 1.487247,-0.57949 1.487247,-1.29915 v -8.39277 c 0,-0.71393 -0.653026,-1.2895 -1.46761,-1.29863 z"
       style="fill:url(#linearGradient73);stroke-width:0.0938703;stroke-linecap:round;stroke-linejoin:round;paint-order:markers stroke fill"
       id="path10" /></g></svg>
