<?xml version="1.0" encoding="UTF-8" standalone="no"?>
<!DOCTYPE svg PUBLIC "-//W3C//DTD SVG 1.1//EN"
 "http://www.w3.org/Graphics/SVG/1.1/DTD/svg11.dtd">
<!-- Generated by graphviz version 14.1.1 (20251213.1925)
 -->
<!-- Title: G Pages: 1 -->
<svg width="478pt" height="238pt"
 viewBox="0.00 0.00 478.00 238.00" xmlns="http://www.w3.org/2000/svg" xmlns:xlink="http://www.w3.org/1999/xlink">
<g id="graph0" class="graph" transform="scale(1 1) rotate(0) translate(4 234)">
<title>G</title>
<polygon fill="white" stroke="none" points="-4,4 -4,-234 473.62,-234 473.62,4 -4,4"/>
<!-- db -->
<g id="node1" class="node">
<title>db</title>
<path fill="none" stroke="black" d="M159.75,-32.73C159.75,-34.53 147.65,-36 132.75,-36 117.85,-36 105.75,-34.53 105.75,-32.73 105.75,-32.73 105.75,-3.27 105.75,-3.27 105.75,-1.47 117.85,0 132.75,0 147.65,0 159.75,-1.47 159.75,-3.27 159.75,-3.27 159.75,-32.73 159.75,-32.73"/>
<path fill="none" stroke="black" d="M159.75,-32.73C159.75,-30.92 147.65,-29.45 132.75,-29.45 117.85,-29.45 105.75,-30.92 105.75,-32.73"/>
<text xml:space="preserve" text-anchor="middle" x="132.75" y="-12.95" font-family="Times New Roman,serif" font-size="14.00">Bilde</text>
</g>
<!-- folder -->
<g id="node2" class="node">
<title>folder</title>
<polygon fill="none" stroke="black" points="363.62,-36 360.62,-40 339.62,-40 336.62,-36 295.88,-36 295.88,0 363.62,0 363.62,-36"/>
<text xml:space="preserve" text-anchor="middle" x="329.75" y="-12.95" font-family="Times New Roman,serif" font-size="14.00">Bildefiler</text>
</g>
<!-- upload -->
<g id="node3" class="node">
<title>upload</title>
<polygon fill="none" stroke="red" points="62.25,-103.5 62.25,-126 203.25,-126 203.25,-103.5 62.25,-103.5"/>
<text xml:space="preserve" text-anchor="start" x="87.75" y="-109.7" font-family="Times New Roman,serif" font-size="14.00"> /api/b&#45;p/upload </text>
<polygon fill="none" stroke="red" points="62.25,-79 62.25,-101.5 203.25,-101.5 203.25,-79 62.25,-79"/>
<text xml:space="preserve" text-anchor="start" x="65.25" y="-85.2" font-family="Times New Roman,serif" font-size="14.00"> Laster opp informasjon </text>
<polygon fill="none" stroke="red" points="59.25,-76 59.25,-129 206.25,-129 206.25,-76 59.25,-76"/>
</g>
<!-- upload&#45;&#45;db -->
<g id="edge1" class="edge">
<title>upload&#45;&#45;db</title>
<path fill="none" stroke="black" d="M132.75,-72.18C132.75,-60.14 132.75,-46.61 132.75,-36.22"/>
</g>
<!-- upload&#45;&#45;folder -->
<g id="edge4" class="edge">
<title>upload&#45;&#45;folder</title>
<path fill="none" stroke="blue" d="M203.04,-72.07C234.42,-58.92 269.97,-44.03 295.42,-33.38"/>
</g>
<!-- update -->
<g id="node4" class="node">
<title>update</title>
<polygon fill="none" stroke="red" points="11,-200.5 11,-223 144.5,-223 144.5,-200.5 11,-200.5"/>
<text xml:space="preserve" text-anchor="start" x="14" y="-206.7" font-family="Times New Roman,serif" font-size="14.00"> &quot;/api/b&#45;p/update&#45;info&quot; </text>
<polygon fill="none" stroke="red" points="11,-176 11,-198.5 144.5,-198.5 144.5,-176 11,-176"/>
<text xml:space="preserve" text-anchor="start" x="22.62" y="-182.2" font-family="Times New Roman,serif" font-size="14.00"> Endrer informasjon</text>
<polygon fill="none" stroke="red" points="8,-173 8,-226 147.5,-226 147.5,-173 8,-173"/>
</g>
<!-- update&#45;&#45;db -->
<g id="edge2" class="edge">
<title>update&#45;&#45;db</title>
<path fill="none" stroke="black" d="M57.37,-169.03C41.64,-142.31 25.28,-102.56 42.75,-72 56.07,-48.7 84.07,-34.63 105.32,-26.9"/>
</g>
<!-- update&#45;&#45;upload -->
<g id="edge3" class="edge">
<title>update&#45;&#45;upload</title>
<path fill="none" stroke="black" stroke-dasharray="1,5" d="M94.7,-169.22C101.39,-157.66 109.07,-144.41 115.76,-132.85"/>
</g>
<!-- bibliotek -->
<g id="node5" class="node">
<title>bibliotek</title>
<polygon fill="none" stroke="red" points="243.5,-103.5 243.5,-126 410,-126 410,-103.5 243.5,-103.5"/>
<text xml:space="preserve" text-anchor="start" x="246.5" y="-109.7" font-family="Times New Roman,serif" font-size="14.00"> /api/b&#45;g/bibliotek/:id/bilder&quot; </text>
<polygon fill="none" stroke="red" points="243.5,-79 243.5,-101.5 410,-101.5 410,-79 243.5,-79"/>
<text xml:space="preserve" text-anchor="start" x="254" y="-85.2" font-family="Times New Roman,serif" font-size="14.00"> Finner info om bibiliotek </text>
<polygon fill="none" stroke="red" points="240.5,-76 240.5,-129 413,-129 413,-76 240.5,-76"/>
</g>
<!-- bibliotek&#45;&#45;db -->
<g id="edge5" class="edge">
<title>bibliotek&#45;&#45;db</title>
<path fill="none" stroke="black" d="M257.53,-72.07C223.8,-57.72 185.17,-41.29 159.94,-30.56"/>
</g>
<!-- bilde -->
<g id="node6" class="node">
<title>bilde</title>
<polygon fill="none" stroke="black" points="316.88,-200.5 316.88,-223 458.62,-223 458.62,-200.5 316.88,-200.5"/>
<text xml:space="preserve" text-anchor="start" x="319.88" y="-206.7" font-family="Times New Roman,serif" font-size="14.00"> /api/b&#45;g/bilde/:filename </text>
<polygon fill="none" stroke="black" points="316.88,-176 316.88,-198.5 458.62,-198.5 458.62,-176 316.88,-176"/>
<text xml:space="preserve" text-anchor="start" x="320.25" y="-182.2" font-family="Times New Roman,serif" font-size="14.00"> Henter bilder fra server </text>
<polygon fill="none" stroke="black" points="313.88,-173 313.88,-226 461.62,-226 461.62,-173 313.88,-173"/>
</g>
<!-- bilde&#45;&#45;folder -->
<g id="edge6" class="edge">
<title>bilde&#45;&#45;folder</title>
<path fill="none" stroke="black" d="M411.02,-169.06C429.07,-142.37 448.18,-102.63 429.75,-72 415.57,-48.43 386.99,-34.79 364,-27.27"/>
</g>
<!-- bilde&#45;&#45;bibliotek -->
<g id="edge7" class="edge">
<title>bilde&#45;&#45;bibliotek</title>
<path fill="none" stroke="black" stroke-dasharray="1,5" d="M368.95,-169.22C361.53,-157.66 353.02,-144.41 345.59,-132.85"/>
</g>
</g>
</svg>
